<svg width="174" height="57" viewBox="0 0 174 57" fill="none" xmlns="http://www.w3.org/2000/svg">
<g clip-path="url(#clip0_1777_44640)">
<path d="M75.5897 11.2305L76.0667 14.2746C78.0839 11.018 80.7961 10.5381 83.4471 10.5381C86.098 10.5381 88.7557 11.6076 90.1936 13.0474L87.2701 18.7105C85.9412 17.5861 84.7214 17.0033 82.5952 17.0033C79.1947 17.0033 76.0667 18.8202 76.0667 23.6811V37.5714H69.5859V11.2305H75.5897Z" fill="white"/>
<path d="M98.6422 3.80509C98.6422 8.87855 90.9961 8.87855 90.9961 3.80509C90.9961 -1.26836 98.6422 -1.26836 98.6422 3.80509ZM91.5822 15.1998V37.571H98.0629V11.1273L91.5822 15.2067V15.1998Z" fill="white"/>
<path d="M119.933 18.2297C118.072 16.4677 115.946 15.8781 113.452 15.8781C110.371 15.8781 108.675 16.8379 108.675 18.4971C108.675 20.1563 110.215 21.1641 113.561 21.3835C118.501 21.7057 124.764 22.8232 124.764 29.8232C124.764 34.4716 120.996 38.4824 113.506 38.4824C109.363 38.4824 105.22 37.7899 101.396 33.7792L104.586 29.1308C106.446 31.215 110.692 32.7645 113.615 32.8193C116.055 32.8742 118.345 31.5921 118.345 29.6656C118.345 27.8487 116.859 27.1014 113.138 26.8889C108.198 26.5186 102.303 24.7018 102.303 18.7165C102.303 12.7312 108.566 10.4893 113.349 10.4893C117.438 10.4893 120.519 11.2914 123.544 13.9653L119.933 18.2434V18.2297Z" fill="white"/>
<path d="M136.983 3.80469V11.2846H144.207V16.8928H136.929V28.2738C136.929 30.7831 138.312 32.0172 140.329 32.0172C141.338 32.0172 142.51 31.695 143.464 31.2151L145.27 36.7684C143.409 37.5158 141.869 37.838 139.907 37.8928C134.223 38.1054 130.509 34.8488 130.509 28.2738V16.8928H125.623V11.2846H130.509V7.77432L136.99 3.80469H136.983Z" fill="white"/>
<path d="M173.999 24.4279C173.999 32.0175 168.847 38.1605 160.349 38.1605C151.851 38.1605 146.754 32.0175 146.754 24.4279C146.754 16.8383 151.96 10.6953 160.295 10.6953C168.629 10.6953 173.999 16.8932 173.999 24.4279ZM153.235 24.4279C153.235 28.4387 155.627 32.1752 160.349 32.1752C165.072 32.1752 167.464 28.4318 167.464 24.4279C167.464 20.424 164.704 16.6258 160.349 16.6258C155.674 16.6258 153.235 20.472 153.235 24.4279Z" fill="#FFC20F"/>
<path d="M18.8018 26.2862L18.795 26.2931L18.7812 26.2862L18.795 26.2793L18.8018 26.2862Z" fill="white"/>
<path d="M89.3272 17.8321H89.3135H89.3066L89.3135 17.8252L89.3272 17.8321Z" fill="white"/>
<path d="M66.4566 24.8735C66.4839 24.4896 66.5043 24.0988 66.5043 23.7011C66.5043 23.6394 66.5043 23.5777 66.4975 23.516C66.4975 23.1801 66.4771 22.8373 66.4498 22.5082C66.4362 22.3162 66.4089 22.1243 66.3885 21.9391C66.368 21.7746 66.3476 21.6101 66.3203 21.4524C65.9932 19.2927 65.1891 17.3113 63.9761 15.6316C62.8039 14.0067 61.2434 12.6767 59.3693 11.7579C58.9468 11.5523 58.5107 11.3672 58.0541 11.2095C56.548 10.5513 54.8989 10.3799 53.277 10.3799C53.2565 10.3799 53.2429 10.3799 53.2224 10.3799C53.2088 10.3799 53.1884 10.3799 53.1747 10.3799C48.8406 10.3799 45.3923 12.1007 43.1094 14.8089C43.0685 14.8569 43.0276 14.9049 42.9799 14.9597C42.8028 15.1722 42.6324 15.4053 42.4688 15.6385C42.3598 15.7961 42.2508 15.947 42.1417 16.1047C42.0463 16.2486 41.9645 16.3926 41.876 16.5434C41.7328 16.7834 41.5897 17.0302 41.4671 17.2839C41.4194 17.373 41.3853 17.4622 41.3376 17.5513C41.1945 17.8529 41.0582 18.1615 40.9355 18.4768C40.9083 18.5454 40.8878 18.6208 40.8606 18.6962C40.7447 19.0253 40.6289 19.3544 40.5335 19.6904C40.4994 19.8069 40.4789 19.9303 40.4449 20.0537C40.3699 20.3485 40.3018 20.6433 40.2404 20.9519C40.1927 21.2261 40.1586 21.5141 40.1178 21.802C40.0973 21.9597 40.0701 22.1174 40.0564 22.2819C40.0155 22.7481 39.9883 23.2281 39.9883 23.7217C39.9883 23.7286 39.9883 23.7423 39.9883 23.7491C39.9883 23.7834 39.9883 23.8245 39.9883 23.8588C39.9883 24.1536 40.0019 24.4416 40.0224 24.7364C40.3903 31.853 44.7722 36.3436 51.7232 36.9195C52.1048 36.9538 52.4933 36.9813 52.8953 36.9881C53.0112 36.9881 53.1202 37.0018 53.2361 37.0018C53.2429 37.0018 53.2565 37.0018 53.2633 37.0018C56.5003 37.0018 59.9009 38.6541 59.9009 42.2878C59.9009 45.9215 56.9774 47.9509 53.2633 47.9509C49.5493 47.9509 46.5236 45.7775 46.4214 42.4592L40.5743 46.0449C42.2099 50.9881 47.1097 54.0459 53.2633 54.0459C60.8549 54.0459 66.3817 49.5552 66.3817 42.2947C66.3817 39.182 65.4685 36.2477 61.8771 34.0949C61.5841 33.9235 61.2842 33.7521 60.9571 33.5875C64.1805 32.1066 65.6729 29.1585 66.2181 26.3956C66.259 26.1762 66.3067 25.9568 66.334 25.7305C66.334 25.6825 66.3476 25.6414 66.3544 25.5934C66.3885 25.3534 66.4089 25.1203 66.4294 24.8941M53.2565 31.0714C49.488 31.0714 46.4077 28.3495 46.4077 23.7491C46.4077 19.1487 49.488 16.3241 53.2565 16.3241C57.0251 16.3241 60.0508 19.2104 60.0508 23.7491C60.0508 28.2878 56.9705 31.0714 53.2565 31.0714Z" fill="white"/>
<path d="M75.8818 48.4512L77.2516 52.6745L78.6077 48.4512H79.296L80.6453 52.6745L82.0219 48.4512H82.9487L81.1632 53.5863H80.1955L79.5004 51.6804L78.9553 49.8087L78.3965 51.6804L77.7082 53.5863H76.7473L74.9414 48.4512H75.8818Z" fill="white"/>
<path d="M88.435 52.7571C87.9171 53.3673 87.0311 53.669 86.2338 53.669C84.6528 53.669 83.5488 52.62 83.5488 50.9883C83.5488 49.3565 84.6528 48.3281 86.1929 48.3281C87.7331 48.3281 88.9393 49.2948 88.7416 51.3379H84.4075C84.5029 52.284 85.273 52.8737 86.2543 52.8737C86.8335 52.8737 87.5354 52.6474 87.8762 52.2292L88.4418 52.7503H88.4282L88.435 52.7571ZM87.9375 50.6386C87.8966 49.6445 87.2151 49.1029 86.2134 49.1029C85.3275 49.1029 84.5506 49.6445 84.4075 50.6317H87.9375V50.6386Z" fill="white"/>
<path d="M93.47 46.3125H92.625V53.5799H93.47V46.3125Z" fill="white"/>
<path d="M97.3961 48.335C98.9566 48.335 100.047 49.4319 100.047 51.0225C100.047 52.6131 98.9294 53.6689 97.3961 53.6689C95.8628 53.6689 94.752 52.5788 94.752 51.0225C94.752 49.4662 95.8764 48.335 97.3961 48.335ZM97.4029 49.1097C96.3602 49.1097 95.597 49.8776 95.597 51.0225C95.597 52.0989 96.3534 52.8737 97.3961 52.8737C98.4387 52.8737 99.202 52.1058 99.2088 51.0225C99.2088 49.8844 98.4251 49.1097 97.4029 49.1097Z" fill="white"/>
<path d="M101.472 48.4512L102.296 50.4531L103.162 52.6745L104.02 50.4668L104.845 48.4512H105.772L103.632 53.5863H102.698L100.545 48.4512H101.472Z" fill="white"/>
<path d="M111.162 52.7571C110.644 53.3673 109.758 53.669 108.96 53.669C107.379 53.669 106.275 52.62 106.275 50.9883C106.275 49.3565 107.379 48.3281 108.92 48.3281C110.46 48.3281 111.666 49.2948 111.468 51.3379H107.134C107.229 52.284 108 52.8737 108.981 52.8737C109.56 52.8737 110.262 52.6474 110.603 52.2292L111.168 52.7503H111.155L111.162 52.7571ZM110.664 50.6386C110.623 49.6445 109.942 49.1029 108.94 49.1029C108.054 49.1029 107.277 49.6445 107.134 50.6317H110.664V50.6386Z" fill="white"/>
<path d="M115.291 48.4719H116.095L116.136 49.4592C116.538 48.7736 117.295 48.3828 118.099 48.3828C119.564 48.4171 120.634 49.4524 120.634 51.0292C120.634 52.6061 119.571 53.6962 118.044 53.6962C117.322 53.6962 116.518 53.3809 116.116 52.661V56.0067H115.291V48.4788V48.4719ZM119.789 51.0498C119.789 49.898 119.032 49.2124 117.99 49.2124C116.947 49.2124 116.204 50.0008 116.204 51.0498C116.204 52.0988 116.961 52.8872 117.99 52.9009C119.012 52.9009 119.789 52.2085 119.789 51.0498Z" fill="white"/>
<path d="M124.177 48.335C125.738 48.335 126.828 49.4319 126.828 51.0225C126.828 52.6131 125.711 53.6689 124.177 53.6689C122.644 53.6689 121.533 52.5788 121.533 51.0225C121.533 49.4662 122.658 48.335 124.177 48.335ZM124.184 49.1097C123.141 49.1097 122.378 49.8776 122.378 51.0225C122.378 52.0989 123.135 52.8737 124.177 52.8737C125.22 52.8737 125.983 52.1058 125.99 51.0225C125.99 49.8844 125.206 49.1097 124.184 49.1097Z" fill="white"/>
<path d="M129.364 48.4585H130.945V49.1852H129.358V51.8934C129.358 52.4967 129.555 52.8806 130.162 52.8806C130.387 52.8806 130.645 52.8052 130.877 52.6955L131.123 53.4017C130.782 53.5594 130.475 53.6417 130.134 53.6554C129.044 53.6759 128.526 53.0315 128.526 51.9002V49.1921H127.504V48.4654H128.526V47.053L129.371 46.957V48.4585H129.364Z" fill="white"/>
<path d="M136.218 53.6004L136.198 52.668C135.796 53.3742 135.019 53.7101 134.317 53.7101C132.852 53.7101 131.707 52.6886 131.707 51.0225C131.707 49.3565 132.872 48.3624 134.331 48.3761C135.094 48.3761 135.85 48.7326 136.218 49.3977V48.4652H137.05V53.5936H136.232L136.212 53.6141L136.218 53.6004ZM134.358 49.1783C133.349 49.1783 132.532 49.905 132.532 51.05C132.532 52.1949 133.349 52.9285 134.358 52.9285C136.811 52.9285 136.811 49.1714 134.365 49.1714H134.358V49.1783Z" fill="white"/>
<path d="M140.036 48.4585H141.617V49.1852H140.029V51.8934C140.029 52.4967 140.227 52.8806 140.834 52.8806C141.058 52.8806 141.317 52.8052 141.549 52.6955L141.794 53.4017C141.454 53.5594 141.147 53.6417 140.806 53.6554C139.716 53.6759 139.198 53.0315 139.198 51.9002V49.1921H138.176V48.4654H139.198V47.053L140.043 46.957V48.4585H140.036Z" fill="white"/>
<path d="M145.009 48.335C146.57 48.335 147.66 49.4319 147.66 51.0225C147.66 52.6131 146.543 53.6689 145.009 53.6689C143.476 53.6689 142.365 52.5788 142.365 51.0225C142.365 49.4662 143.49 48.335 145.009 48.335ZM145.016 49.1097C143.974 49.1097 143.21 49.8776 143.21 51.0225C143.21 52.0989 143.967 52.8737 145.009 52.8737C146.052 52.8737 146.815 52.1058 146.822 51.0225C146.822 49.8844 146.038 49.1097 145.016 49.1097Z" fill="white"/>
<path d="M153.44 52.7571C152.922 53.3673 152.036 53.669 151.246 53.669C149.665 53.669 148.561 52.62 148.561 50.9883C148.561 49.3565 149.665 48.3281 151.198 48.3281C152.731 48.3281 153.944 49.2948 153.747 51.3379H149.412C149.508 52.284 150.278 52.8737 151.259 52.8737C151.838 52.8737 152.54 52.6474 152.881 52.2292L153.447 52.7503H153.44V52.7571ZM152.942 50.6386C152.902 49.6445 152.22 49.1029 151.218 49.1029C150.332 49.1029 149.555 49.6445 149.412 50.6317H152.942V50.6386Z" fill="white"/>
<path d="M158.197 49.5897C157.755 49.1852 157.291 49.0892 156.766 49.0892C156.064 49.0755 155.499 49.3292 155.506 49.8366C155.512 50.3645 156.133 50.5222 156.773 50.5907C157.7 50.7073 158.94 50.8924 158.92 52.1607C158.899 53.1891 157.932 53.6965 156.787 53.6965C155.928 53.6965 155.083 53.4565 154.504 52.7298L154.988 52.1402C155.438 52.7024 156.174 52.9286 156.8 52.9286C157.359 52.9286 158.068 52.7504 158.095 52.1265C158.102 51.5643 157.509 51.3997 156.719 51.3037C155.737 51.1803 154.688 50.9198 154.688 49.8297C154.674 48.7396 155.771 48.3145 156.753 48.3214C157.516 48.3214 158.15 48.5065 158.695 49.007L158.211 49.5692H158.197V49.5897Z" fill="white"/>
<path d="M24.2399 0.308594H16.6211L0 37.5711H7.56433L10.74 30.5437H16.7914L27.2997 24.003L30.8297 32.1617L33.2353 37.5711H40.8542L24.2399 0.308594ZM13.5476 23.9962L20.4237 8.13132L27.3065 23.9962H13.5476Z" fill="white"/>
</g>
<defs>
<clipPath id="clip0_1777_44640">
<rect width="174" height="57" fill="white"/>
</clipPath>
</defs>
</svg>
