<svg xmlns="http://www.w3.org/2000/svg" viewBox="0 0 297 53.3"><style type="text/css">.st0{fill:#164194;}</style><g><g><g><path class="st0" d="M36.7 41.1c-2.6 2-5.7 2.3-8.9 2.3H14.6V10l13.2 0c2.7 0 5.4 0.4 7.7 1.8 2.4 1.6 3.9 4.4 3.9 7.2 0 2.7-1.3 5.8-4.1 7 3.1 1.5 4.8 4.4 4.8 7.5C40.1 36.6 39.1 39.2 36.7 41.1zM28.1 15.2h-7.5v8.4h7.6c2.7 0 5-1 5-4.1C33.2 16.2 30.8 15.2 28.1 15.2zM28.2 28.6h-7.6v9.3h7.5c2.8 0 5.9-1 5.9-4.4C33.9 29.9 31.4 28.6 28.2 28.6z"/></g><polygon class="st0" points="0 0 0 23.5 4.6 23.5 4.6 4.6 48.6 4.6 48.6 48.6 4.6 48.6 4.6 28.6 0 28.6 0 53.3 53.3 53.3 53.3 0 "/></g><g><path class="st0" d="M66.1 41.6L66.1 41.6c0-4 3-7.3 7.1-7.3 2.5 0 4.1 0.9 5.5 2.2l-1.1 1.2c-1.2-1.1-2.5-1.9-4.4-1.9 -3.1 0-5.5 2.5-5.5 5.8v0c0 3.3 2.3 5.8 5.5 5.8 1.9 0 3.2-0.7 4.5-2l1 1c-1.5 1.5-3.1 2.5-5.6 2.5C69.1 48.9 66.1 45.7 66.1 41.6z"/><path class="st0" d="M93 41.6L93 41.6c0-3.9 2.9-7.3 7.2-7.3 4.3 0 7.2 3.4 7.2 7.2v0c0 3.9-2.9 7.3-7.2 7.3C95.9 48.9 93 45.5 93 41.6zM105.7 41.6L105.7 41.6c0-3.2-2.3-5.9-5.6-5.9 -3.2 0-5.5 2.6-5.5 5.8v0c0 3.2 2.3 5.8 5.6 5.8C103.4 47.4 105.7 44.8 105.7 41.6z"/><path class="st0" d="M123.2 34.6h1.5l8.9 11.3V34.6h1.6v14.1h-1.3l-9.1-11.6v11.6h-1.5V34.6z"/><path class="st0" d="M150.6 46.6l1-1.2c1.5 1.3 2.9 2 4.8 2 1.9 0 3.1-1 3.1-2.4v0c0-1.3-0.7-2-3.7-2.7 -3.2-0.7-4.7-1.7-4.7-4.1v0c0-2.2 1.9-3.8 4.6-3.8 2.1 0 3.5 0.6 5 1.7l-0.9 1.2c-1.3-1.1-2.6-1.5-4.1-1.5 -1.8 0-3 1-3 2.3v0c0 1.3 0.7 2.1 3.8 2.7 3.1 0.7 4.6 1.8 4.6 4v0c0 2.4-2 4-4.8 4C154.1 48.8 152.3 48.1 150.6 46.6z"/><path class="st0" d="M180.3 36h-4.7v-1.5h11.1V36h-4.7v12.6h-1.6V36z"/><path class="st0" d="M202.1 34.6h6c1.7 0 3.1 0.5 4 1.4 0.7 0.7 1.1 1.7 1.1 2.8v0c0 2.3-1.6 3.7-3.8 4.1l4.3 5.8h-1.9l-4.1-5.5h-4v5.5h-1.6V34.6zM208 41.7c2.1 0 3.6-1.1 3.6-2.9v0c0-1.7-1.3-2.8-3.6-2.8h-4.3v5.7H208z"/><path class="st0" d="M228.8 42.7v-8.2h1.6v8.1c0 3 1.6 4.7 4.3 4.7 2.6 0 4.2-1.6 4.2-4.6v-8.2h1.6v8.1c0 4.1-2.3 6.2-5.9 6.2C231.2 48.9 228.8 46.7 228.8 42.7z"/><path class="st0" d="M256.2 41.6L256.2 41.6c0-4 3-7.3 7.1-7.3 2.6 0 4.1 0.9 5.5 2.2l-1.1 1.2c-1.2-1.1-2.5-1.9-4.4-1.9 -3.1 0-5.4 2.5-5.4 5.8v0c0 3.3 2.4 5.8 5.4 5.8 1.9 0 3.2-0.7 4.5-2l1.1 1c-1.5 1.5-3.1 2.5-5.6 2.5C259.2 48.9 256.2 45.7 256.2 41.6z"/><path class="st0" d="M287.8 36h-4.7v-1.5h11.1V36h-4.7v12.6h-1.6V36z"/></g><g><path class="st0" d="M66.1 4.8h10.1c2.5 0 4.4 0.7 5.7 1.9 1 1 1.5 2.2 1.5 3.7v0.1c0 2.5-1.3 3.8-2.9 4.7 2.5 1 4.1 2.4 4.1 5.3v0.1c0 4-3.2 6-8.1 6H66.1V4.8zM75.1 13.6c2.1 0 3.5-0.7 3.5-2.3v-0.1c0-1.4-1.1-2.2-3.1-2.2h-4.7v4.6H75.1zM76.4 22.3c2.1 0 3.4-0.7 3.4-2.4v-0.1c0-1.5-1.1-2.4-3.5-2.4h-5.5v4.8H76.4z"/><path class="st0" d="M89.1 4.8h16.4v4.3H93.9v4.4h10.2v4.3H93.9v4.6h11.8v4.3H89.1V4.8z"/><path class="st0" d="M110.5 4.8h16.4v4.3h-11.6v4.4h10.3v4.3h-10.3v4.6h11.8v4.3h-16.6V4.8z"/><path class="st0" d="M131.6 17.2V4.8h4.8v12.3c0 3.5 1.8 5.4 4.7 5.4 2.9 0 4.7-1.8 4.7-5.2V4.8h4.8v12.3c0 6.6-3.7 9.8-9.5 9.8C135.2 26.9 131.6 23.6 131.6 17.2z"/><path class="st0" d="M154.4 4.8h5.1l4.5 14.7 4.9-14.8h4.1l4.9 14.8 4.5-14.7h5l-7.4 21.9h-4.2l-4.9-14.2L166 26.7h-4.2L154.4 4.8z"/><path class="st0" d="M189.4 23.4l2.8-3.4c1.9 1.6 4 2.6 6.5 2.6 2 0 3.1-0.8 3.1-2v-0.1c0-1.2-0.7-1.8-4.4-2.8 -4.4-1.1-7.2-2.3-7.2-6.6V11c0-3.9 3.2-6.5 7.6-6.5 3.2 0 5.9 1 8.1 2.8l-2.5 3.6c-1.9-1.3-3.8-2.1-5.7-2.1 -1.8 0-2.8 0.8-2.8 1.9v0.1c0 1.4 0.9 1.9 4.7 2.9 4.4 1.1 6.9 2.7 6.9 6.5v0.1c0 4.3-3.3 6.7-8 6.7C195.3 26.8 192 25.7 189.4 23.4z"/><path class="st0" d="M218.4 4.7h4.4l9.3 21.9h-5l-2-4.9h-9.2l-2 4.9H209L218.4 4.7zM223.4 17.4l-2.9-7.1 -2.9 7.1H223.4z"/><path class="st0" d="M236.1 4.8h16.4v4.3h-11.7v4.4H251v4.3h-10.2v4.6h11.8v4.3h-16.6V4.8z"/><path class="st0" d="M257.5 4.8h9.9c2.8 0 4.9 0.8 6.3 2.2 1.2 1.2 1.9 2.9 1.9 5V12c0 3.5-1.9 5.7-4.7 6.7l5.3 7.8h-5.6l-4.7-7h-3.8v7h-4.8V4.8zM267.1 15.4c2.3 0 3.7-1.2 3.7-3.1v-0.1c0-2-1.4-3.1-3.7-3.1h-4.8v6.2H267.1z"/><path class="st0" d="M285.6 9.2H279V4.8h18v4.4h-6.6v17.3h-4.8V9.2z"/></g></g></svg>