<svg xmlns="http://www.w3.org/2000/svg" width="280.159" height="64.786" viewBox="0 0 280.159 64.786">
  <path fill="#fff" d="M107.954 26.843a11.49 11.49 0 0 1 4.224 4.354 12.452 12.452 0 0 1 1.543 6.164 12.3 12.3 0 0 1-1.588 6.181 11.609 11.609 0 0 1-4.354 4.376 12.132 12.132 0 0 1-6.164 1.582 12.141 12.141 0 0 1-6.162-1.588 11.527 11.527 0 0 1-4.35-4.37 12.24 12.24 0 0 1-1.593-6.181V27.125a1.321 1.321 0 0 1 .047-.389V16.98a1.693 1.693 0 0 1 .455-1.222 1.577 1.577 0 0 1 1.2-.5 1.642 1.642 0 0 1 1.7 1.579v12.88a10.657 10.657 0 0 1 3.874-3.284 11.193 11.193 0 0 1 5.177-1.2 11.518 11.518 0 0 1 5.993 1.613m-1.833 18.417a8.561 8.561 0 0 0 3.179-3.265 9.886 9.886 0 0 0 0-9.277 8.43 8.43 0 0 0-3.181-3.241 8.841 8.841 0 0 0-4.506-1.167 8.44 8.44 0 0 0-5.856 2.179 8.7 8.7 0 0 0-2.848 5.576.465.465 0 0 1-.047.216 9.689 9.689 0 0 0-.045 1.091A9.318 9.318 0 0 0 93.984 42a8.572 8.572 0 0 0 7.638 4.461 8.646 8.646 0 0 0 4.5-1.2" class="letter letter--b"/>
  <path fill="#fff" d="M136.148 26.757a10.275 10.275 0 0 1 3.854 4.156 13.036 13.036 0 0 1 1.372 6.052 1.5 1.5 0 0 1-.436 1.113 1.583 1.583 0 0 1-1.136.414h-17.59a8.561 8.561 0 0 0 8.886 8.01 9.622 9.622 0 0 0 3.154-.545 7.547 7.547 0 0 0 2.549-1.362 1.934 1.934 0 0 1 1.167-.436 1.622 1.622 0 0 1 .957.35 1.568 1.568 0 0 1 .57 1.167 1.323 1.323 0 0 1-.5 1 11.885 11.885 0 0 1-3.66 2 12.631 12.631 0 0 1-10.506-.735 11.05 11.05 0 0 1-4.29-4.315 12.583 12.583 0 0 1-1.492-6.226 13.269 13.269 0 0 1 1.463-6.292 10.748 10.748 0 0 1 4.045-4.312 11.286 11.286 0 0 1 5.9-1.556 10.78 10.78 0 0 1 5.7 1.516m-11.2 3.546a8.858 8.858 0 0 0-2.654 5.4h15.934a8.508 8.508 0 0 0-2.438-5.4 7.337 7.337 0 0 0-5.356-2.043 7.7 7.7 0 0 0-5.487 2.043" class="letter letter--e"/>
  <path fill="#fff" d="M147.837 47.176a8.452 8.452 0 0 1-1.677-5.42v-24.82a1.584 1.584 0 0 1 .5-1.2 1.639 1.639 0 0 1 1.177-.461 1.57 1.57 0 0 1 1.652 1.484 1.258 1.258 0 0 1 0 .171v24.82a5.5 5.5 0 0 0 .767 3.049 2.238 2.238 0 0 0 1.946 1.167h1.086a1.307 1.307 0 0 1 1.047.457 1.783 1.783 0 0 1 .389 1.2 1.5 1.5 0 0 1-.547 1.2 2.128 2.128 0 0 1-1.412.455h-.564a5.284 5.284 0 0 1-4.362-2.105" class="letter letter--l"/>
  <path fill="#fff" d="M159.987 20.243a2.335 2.335 0 0 1-.675-1.7 2.232 2.232 0 0 1 .694-1.7 2.393 2.393 0 0 1 1.7-.656 2.334 2.334 0 0 1 1.652.656 2.214 2.214 0 0 1 .7 1.7 2.379 2.379 0 0 1-2.366 2.393h-.029a2.236 2.236 0 0 1-1.675-.7m.5 28.565a1.642 1.642 0 0 1-.5-1.216v-20.4a1.644 1.644 0 0 1 1.586-1.7h.117a1.584 1.584 0 0 1 1.2.5 1.683 1.683 0 0 1 .455 1.216v20.44a1.7 1.7 0 0 1-.455 1.216 1.584 1.584 0 0 1-1.2.5 1.66 1.66 0 0 1-1.2-.551" class="letter letter--i"/>
  <path fill="#fd8d43" d="M174.265 48.595a10.028 10.028 0 0 1-4.012-2.568 1.605 1.605 0 0 1-.428-1 1.642 1.642 0 0 1 .7-1.3 1.751 1.751 0 0 1 1.086-.389 1.594 1.594 0 0 1 1.261.611 6.745 6.745 0 0 0 2.769 1.858 10.648 10.648 0 0 0 3.81.65 8.152 8.152 0 0 0 4.572-1.041 3.288 3.288 0 0 0 1.566-2.743 3.082 3.082 0 0 0-1.5-2.613 12 12 0 0 0-4.835-1.556 13.592 13.592 0 0 1-6.38-2.418 5.2 5.2 0 0 1-2.111-4.16 5.676 5.676 0 0 1 2.463-4.922 10.386 10.386 0 0 1 6.156-1.751 11.937 11.937 0 0 1 5.006 1 8.812 8.812 0 0 1 3.44 2.724 2 2 0 0 1 .35 1 1.338 1.338 0 0 1-.7 1.167 1.39 1.39 0 0 1-.827.214 1.994 1.994 0 0 1-1.5-.65 7.359 7.359 0 0 0-5.837-2.438 6.688 6.688 0 0 0-3.829 1 2.918 2.918 0 0 0-1.024 4 2.919 2.919 0 0 0 .935.969 12.473 12.473 0 0 0 4.79 1.5q4.654.778 6.664 2.547a5.593 5.593 0 0 1 2 4.376 5.717 5.717 0 0 1-1.212 3.539 7.743 7.743 0 0 1-3.333 2.438 12.664 12.664 0 0 1-4.831.872 14.931 14.931 0 0 1-5.2-.914M206.225 46.419a1.751 1.751 0 0 1 .436 1.218 1.556 1.556 0 0 1-.5 1.167 1.869 1.869 0 0 1-1.306.5h-.916a7.782 7.782 0 0 1-7-4.117 8.888 8.888 0 0 1-1-4.282V29.266h-2.841a1.5 1.5 0 0 1-1.113-.414 1.391 1.391 0 0 1-.41-1 1.45 1.45 0 0 1 .41-1.066 1.5 1.5 0 0 1 1.113-.414h2.841v-6.775a1.693 1.693 0 0 1 .448-1.224 1.582 1.582 0 0 1 1.2-.5 1.64 1.64 0 0 1 1.7 1.576v6.9h4.917a1.5 1.5 0 0 1 1.111.416 1.442 1.442 0 0 1 .414 1.066 1.388 1.388 0 0 1-.414 1 1.508 1.508 0 0 1-1.111.414h-4.917V40.87a5.156 5.156 0 0 0 1.3 3.634 4.366 4.366 0 0 0 3.354 1.416h1.167a1.46 1.46 0 0 1 1.121.494M229.107 26.843a11.6 11.6 0 0 1 4.356 4.368 12.231 12.231 0 0 1 1.578 6.189v10.234a1.583 1.583 0 0 1-.5 1.167 1.648 1.648 0 0 1-1.222.5 1.7 1.7 0 0 1-1.216-.457 1.579 1.579 0 0 1-.5-1.2v-2.603a10.725 10.725 0 0 1-3.868 3.292 11.186 11.186 0 0 1-5.181 1.2 11.462 11.462 0 0 1-10.213-5.942 12.387 12.387 0 0 1-1.556-6.162 12.257 12.257 0 0 1 1.64-6.229 11.528 11.528 0 0 1 4.356-4.376 12.722 12.722 0 0 1 12.32 0Zm-1.682 18.443a8.506 8.506 0 0 0 3.16-3.245 9.923 9.923 0 0 0 0-9.275 8.825 8.825 0 0 0-12.032-3.317 8.826 8.826 0 0 0-3.312 3.317 9.923 9.923 0 0 0 0 9.275 8.5 8.5 0 0 0 3.179 3.245 8.834 8.834 0 0 0 4.5 1.167 8.712 8.712 0 0 0 4.505-1.167M253.212 46.417a1.738 1.738 0 0 1 .436 1.218 1.529 1.529 0 0 1-.525 1.167 1.848 1.848 0 0 1-1.305.5h-.913a7.767 7.767 0 0 1-7-4.117 8.851 8.851 0 0 1-1.027-4.29V29.264h-2.831a1.5 1.5 0 0 1-1.109-.42 1.4 1.4 0 0 1-.416-1 1.448 1.448 0 0 1 .416-1.066 1.5 1.5 0 0 1 1.111-.414h2.827v-6.769a1.718 1.718 0 0 1 .455-1.224 1.58 1.58 0 0 1 1.2-.5 1.642 1.642 0 0 1 1.7 1.584v6.893h4.922a1.5 1.5 0 0 1 1.111.416 1.441 1.441 0 0 1 .41 1.066 1.39 1.39 0 0 1-.41 1 1.508 1.508 0 0 1-1.111.414h-4.922v11.625a5.148 5.148 0 0 0 1.307 3.634 4.35 4.35 0 0 0 3.354 1.416h1.177a1.458 1.458 0 0 1 1.148.494M274.938 26.757a10.267 10.267 0 0 1 3.856 4.152 12.977 12.977 0 0 1 1.361 6.055 1.461 1.461 0 0 1-.436 1.113 1.585 1.585 0 0 1-1.132.414h-17.581a8.561 8.561 0 0 0 8.88 8.01 9.656 9.656 0 0 0 3.16-.545 7.55 7.55 0 0 0 2.543-1.362 1.946 1.946 0 0 1 1.177-.436 1.652 1.652 0 0 1 .961.35 1.579 1.579 0 0 1 .564 1.167 1.315 1.315 0 0 1-.5 1 11.823 11.823 0 0 1-3.66 2 12.625 12.625 0 0 1-10.506-.735 11.05 11.05 0 0 1-4.28-4.315 12.6 12.6 0 0 1-1.543-6.247 13.335 13.335 0 0 1 1.457-6.292 10.736 10.736 0 0 1 4.051-4.312 11.3 11.3 0 0 1 5.936-1.527 10.754 10.754 0 0 1 5.691 1.508m-11.182 3.547a8.876 8.876 0 0 0-2.66 5.4h15.94a8.5 8.5 0 0 0-2.444-5.4 7.334 7.334 0 0 0-5.356-2.043 7.7 7.7 0 0 0-5.48 2.043M32.393 0a32.393 32.393 0 0 1 32.393 32.393 32.393 32.393 0 0 1-32.393 32.393A32.393 32.393 0 0 1 0 32.393 32.393 32.393 0 0 1 32.393 0"/>
  <path fill="#151818" d="M30.446 26.185a12.835 12.835 0 0 1 4.722 4.867 13.9 13.9 0 0 1 1.734 6.89 13.717 13.717 0 0 1-1.776 6.911 12.943 12.943 0 0 1-4.88 4.892 14.253 14.253 0 0 1-13.778 0 12.913 12.913 0 0 1-4.867-4.893 13.717 13.717 0 0 1-1.775-6.911V26.5a1.417 1.417 0 0 1 .047-.426V15.158a1.9 1.9 0 0 1 .51-1.362 1.763 1.763 0 0 1 1.337-.536 1.832 1.832 0 0 1 1.9 1.76v14.4a12.04 12.04 0 0 1 4.334-3.675 12.565 12.565 0 0 1 5.8-1.341 12.886 12.886 0 0 1 6.688 1.779m-2.06 20.591a9.562 9.562 0 0 0 3.555-3.649 11.07 11.07 0 0 0 0-10.372 9.372 9.372 0 0 0-3.555-3.624 9.841 9.841 0 0 0-5.037-1.316 9.422 9.422 0 0 0-6.549 2.436 9.788 9.788 0 0 0-3.189 6.229.519.519 0 0 1-.047.243 11.561 11.561 0 0 0 1.239 6.386 9.911 9.911 0 0 0 13.524 3.682l.057-.032Z"/>
  <path fill="#fff" d="M52.719 38.937q-2.235-1.967-7.447-2.851a14.03 14.03 0 0 1-5.356-1.678 3.247 3.247 0 0 1-1.508-2.793 3.24 3.24 0 0 1 1.606-2.75 7.491 7.491 0 0 1 4.283-1.1 8.224 8.224 0 0 1 6.527 2.73 2.231 2.231 0 0 0 1.7.728 1.58 1.58 0 0 0 .924-.243 1.49 1.49 0 0 0 .777-1.316 2.221 2.221 0 0 0-.392-1.123 9.819 9.819 0 0 0-3.832-3.04 13.284 13.284 0 0 0-5.6-1.1 11.614 11.614 0 0 0-6.889 1.951 6.279 6.279 0 0 0-2.128 2.469 13.424 13.424 0 0 1 1.563 2.227 13.792 13.792 0 0 1 1.7 6.457 18.442 18.442 0 0 0 5.578 1.7 13.694 13.694 0 0 1 5.438 1.75 3.442 3.442 0 0 1 1.7 2.921 3.684 3.684 0 0 1-1.75 3.066 9.075 9.075 0 0 1-5.109 1.169 11.945 11.945 0 0 1-4.261-.73 7.472 7.472 0 0 1-3.092-2.09 1.925 1.925 0 0 0-.315-.307 13.161 13.161 0 0 1-2.32 2.929 11.446 11.446 0 0 0 4.194 2.585 16.641 16.641 0 0 0 5.8 1.022 14.128 14.128 0 0 0 5.4-.975 8.679 8.679 0 0 0 3.726-2.724 6.413 6.413 0 0 0 1.337-3.994 6.256 6.256 0 0 0-2.261-4.892"/>
  <path fill="none" d="M0 64.786h280.159V0H0Z"/>
</svg>
