<svg xmlns="http://www.w3.org/2000/svg" class="logo" viewBox="0 0 87.485 18.245">
  <path fill="white" d="M55.005 13.173a.306.306 0 0 1 .3-.328H57.8a.329.329 0 0 1 .314.277 3.059 3.059 0 0 0 3.253 2.359c1.792 0 2.943-1.1 2.943-2.482 0-1.229-1.049-1.945-2.533-2.354l-2.2-.614c-3.787-.973-4.452-3.251-4.452-4.785C55.125 2.124 57.863 0 61.113 0c3.124 0 5.6 1.873 5.75 4.992a.3.3 0 0 1-.3.305H64.07a.321.321 0 0 1-.311-.28 2.525 2.525 0 0 0-2.724-2.228 2.578 2.578 0 0 0-2.764 2.406c0 .486.154 1.509 2.175 2.047l2.1.615c2.764.768 4.888 2.2 4.888 5.016 0 3.224-2.686 5.373-6.142 5.373-3.625-.001-6.109-2.232-6.287-5.073ZM71.75 15.25A8.984 8.984 0 0 1 77.765.15a9.41 9.41 0 0 1 .556-.017 8.894 8.894 0 0 1 6.553 2.842.147.147 0 0 1 .04.112.16.16 0 0 1-.055.115l-2.071 1.814a.15.15 0 0 1-.1.039.174.174 0 0 1-.122-.052 5.913 5.913 0 1 0-4.856 10 6.1 6.1 0 0 0 .613.031 5.864 5.864 0 0 0 4.249-1.806.174.174 0 0 1 .122-.053.158.158 0 0 1 .1.039l2.072 1.813a.163.163 0 0 1 .056.115.147.147 0 0 1-.04.112 8.9 8.9 0 0 1-6.561 2.849 9.017 9.017 0 0 1-6.571-2.852ZM23.6 18.107c-.089 0-.178 0-.267-.007h-.255a8.869 8.869 0 0 1-4.264-1.368 8.982 8.982 0 0 1 .783-15.645l.093-.044c.094-.046.19-.091.286-.133l.146-.063.247-.1.164-.061c.083-.031.166-.058.249-.086l.159-.051c.094-.03.188-.056.283-.082l.131-.036c.126-.032.254-.062.382-.089l.036-.008a9.039 9.039 0 0 1 .9-.139h.027a7.67 7.67 0 0 1 .343-.029h.057c.148-.008.3-.013.445-.013h.066c.089 0 .177 0 .266.007.065 0 .13 0 .194.005h.061a8.858 8.858 0 0 1 4.264 1.367 8.982 8.982 0 0 1-.783 15.645l-.093.045c-.095.046-.189.09-.286.133-.048.022-.1.041-.146.062l-.247.1-.165.062c-.083.03-.166.059-.249.085l-.159.052a9.083 9.083 0 0 1-.282.081c-.044.012-.087.025-.131.036a9.24 9.24 0 0 1-.382.089l-.037.009a9 9 0 0 1-.9.138h-.026a9.762 9.762 0 0 1-.344.029h-.057a9.56 9.56 0 0 1-.444.013h-.056Zm-.146-14.9h-.156c-.056 0-.116.008-.175.013l-.131.011c-.049 0-.1.012-.144.018l-.165.022-.109.02c-.067.012-.132.023-.2.037l-.084.02a5.269 5.269 0 0 0-.217.052L22 3.428a5.425 5.425 0 0 0-.217.066c-.028.008-.054.018-.081.027a7.966 7.966 0 0 0-.2.071l-.107.042a5.296 5.296 0 0 0-.158.066l-.15.068-.1.047a5.207 5.207 0 0 0-.21.109l-.022.012a5.975 5.975 0 0 0-1.4 1.077.234.234 0 0 1-.031.022l-.14.148a5.9 5.9 0 0 0 .149 8.037.128.128 0 0 1 .027.018 5.929 5.929 0 0 0 1.882 1.309l.1.043a5.99 5.99 0 0 0 .745.251c.1.025.191.049.288.068a5.382 5.382 0 0 0 .517.085 5.906 5.906 0 0 0 .706.043h.302l.176-.014.13-.011c.049 0 .1-.012.144-.018l.165-.022.11-.02c.066-.012.131-.023.2-.037l.085-.019c.072-.017.144-.033.216-.053l.074-.021c.073-.021.146-.042.218-.065l.081-.028.2-.07.106-.042.158-.066.15-.068.1-.048c.07-.034.14-.07.21-.108l.022-.012a5.949 5.949 0 0 0 1.4-1.078.2.2 0 0 1 .031-.022l.139-.148a5.9 5.9 0 0 0-.149-8.036.137.137 0 0 1-.026-.019A5.93 5.93 0 0 0 25.958 3.7l-.1-.044a6.021 6.021 0 0 0-.745-.251c-.1-.025-.192-.049-.289-.068l-.209-.04a5.49 5.49 0 0 0-.306-.044 5.929 5.929 0 0 0-.706-.044c-.05-.001-.103.001-.147.002Zm25.282 14.425V.609a.3.3 0 0 1 .3-.3h2.518a.3.3 0 0 1 .3.3v17.027a.3.3 0 0 1-.3.3H49.04a.3.3 0 0 1-.302-.3Zm-12.963.3a.3.3 0 0 1-.3-.3V.609a.3.3 0 0 1 .3-.3h10.093a.3.3 0 0 1 .3.3v2.185a.3.3 0 0 1-.3.3H38.9a.3.3 0 0 0-.3.3v4.185a.3.3 0 0 0 .3.3h5.384a.3.3 0 0 1 .3.3v2.185a.3.3 0 0 1-.3.3H38.9a.3.3 0 0 0-.3.3v6.664a.3.3 0 0 1-.3.3Zm-35.473 0a.3.3 0 0 1-.3-.3V.609a.3.3 0 0 1 .3-.3h6.556c3.07 0 5.015 1.842 5.015 4.53a3.641 3.641 0 0 1-2.3 3.685 4.292 4.292 0 0 1 3.251 4.4c0 2.482-1.767 5.016-5.425 5.016Zm2.819-7.58v4.487a.3.3 0 0 0 .3.3h3.486a2.524 2.524 0 0 0 2.763-2.533 2.488 2.488 0 0 0-2.686-2.559H3.42a.3.3 0 0 0-.299.312Zm0-6.961v3.72a.3.3 0 0 0 .3.3h3.307a1.93 1.93 0 0 0 2.021-2.149A1.95 1.95 0 0 0 6.73 3.1H3.423a.3.3 0 0 0-.302.3Zm80.986 5.714A1.689 1.689 0 1 1 85.8 10.8a1.689 1.689 0 0 1-1.693-1.687Z"/>
</svg>
