<svg version="1.1" id="Layer_1" xmlns="http://www.w3.org/2000/svg" xmlns:xlink="http://www.w3.org/1999/xlink" x="0px" y="0px" style="enable-background:new 0 0 1080 1080;" xml:space="preserve" viewBox="145.4 478.7 789.2 122.6"> <style type="text/css"> 	.st0{fill:none;} 	.st1{fill:#FFFFFF;} </style> <g> 	<path class="st0" d="M633.8,551.4h-27.6v11.9h27.6c6.3,0,6.6-5.1,6.6-6C640.4,556.1,640.1,551.4,633.8,551.4z"></path> 	<path class="st0" d="M224.5,522.6c0-1.8-0.4-6-6.8-6h-27.2v11.8h27.2C224.1,528.4,224.5,523.9,224.5,522.6z"></path> 	<path class="st0" d="M218.1,551.4h-27.6v11.9h27.6c6.3,0,6.6-5.1,6.6-6C224.6,556.1,224.4,551.4,218.1,551.4z"></path> 	<path class="st0" d="M640.2,522.6c0-1.8-0.4-6-6.8-6h-27.2v11.8h27.2C639.8,528.4,640.2,523.9,640.2,522.6z"></path> 	<path class="st1" d="M253.4,538.9v-2.5c7-4.4,14.1-9.2,14.1-22.7c0-14.8-8.6-31.2-44.6-31.2h-77.5v115h74.5 		c37.4,0,50.2-14.4,50.2-32.4C270.1,552.3,263.6,544.9,253.4,538.9z M190.4,516.6h27.2c6.4,0,6.8,4.2,6.8,6c0,1.2-0.4,5.7-6.8,5.7 		h-27.2V516.6z M218.1,563.3h-27.6v-11.9h27.6c6.3,0,6.6,4.8,6.6,5.9C224.6,558.2,224.4,563.3,218.1,563.3z"></path> 	<path class="st1" d="M340,478.7c-40.9,0-66.5,23.9-66.5,61.3c0,37.2,25.6,61.3,66.5,61.3c40.8,0,66.4-24.1,66.4-61.3 		C406.4,502.6,380.8,478.7,340,478.7z M350.2,557.2L350.2,557.2l-9.8-9.8l-10.1,10.1c-5.4,5.4-13.7-3-8.3-8.3l10.1-10.1l-9.2-9.2 		c-5.4-5.4,3-13.7,8.3-8.3l9.2,9.2l8.9-8.9c5.4-5.4,13.7,3,8.3,8.3l-8.9,8.9l9.8,9.8C363.9,554.3,355.6,562.6,350.2,557.2z"></path> 	<polygon class="st1" points="484.4,537.9 481.1,537.9 468.9,482.5 412.5,482.5 412.5,597.5 455.4,597.5 455.4,558.7 458.8,558.7  		466.3,597.5 499.2,597.5 506.7,558.7 510.1,558.7 510.1,597.5 552.9,597.5 552.9,482.5 496.6,482.5 	"></polygon> 	<path class="st1" d="M669.1,538.9v-2.5c7-4.4,14.1-9.2,14.1-22.7c0-14.8-8.6-31.2-44.6-31.2h-77.5v115h74.5 		c37.4,0,50.2-14.4,50.2-32.4C685.8,552.3,679.4,544.9,669.1,538.9z M606.2,516.6h27.2c6.4,0,6.8,4.2,6.8,6c0,1.2-0.4,5.7-6.8,5.7 		h-27.2V516.6z M633.8,563.3h-27.6v-11.9h27.6c6.3,0,6.6,4.8,6.6,5.9C640.4,558.2,640.1,563.3,633.8,563.3z"></path> 	<polygon class="st1" points="692.7,597.5 800.8,597.5 800.8,563.3 737.7,563.3 737.7,551.4 798.3,551.4 798.3,527.9 737.7,527.9  		737.7,516.6 800.8,516.6 800.8,482.5 692.7,482.5 	"></polygon> 	<path class="st1" d="M930.1,528.2c0-32.6-19-45.7-51.6-45.7H809v115h45v-26.7h23.1l13.4,26.7h44.1l-19.4-36.8 		C923.8,553.8,930.1,543.1,930.1,528.2z M875.1,534.4H854v-17.8h21.1c6.8,0,9.9,3.6,9.9,8.9S881.9,534.4,875.1,534.4z"></path> </g> </svg>