<?xml version="1.0" encoding="UTF-8"?>
<svg id="Laag_1" data-name="Laag 1" xmlns="http://www.w3.org/2000/svg" viewBox="0 0 415.65 276.82">
  <defs>
    <style>
      .cls-1 {
        fill: #003478;
        stroke-width: 0px;
      }
    </style>
  </defs>
  <path class="cls-1" d="m167.8,167.74c-3.52-1.58-5.33-4.76-5.44-9.53v-72.95h20.84v84.86c-6.75,0-11.89-.79-15.41-2.38"/>
  <path class="cls-1" d="m154.78,85.26h-20.88v25.89c-4.46-2.86-10.06-4.3-16.78-4.3-10.13,0-18.09,2.93-23.9,8.78-5.81,5.86-8.71,13.6-8.71,23.23s2.9,17.37,8.71,23.23c5.8,5.86,13.77,8.78,23.9,8.78,6.73,0,12.32-1.43,16.78-4.3v3.55h.04s0,0,0,0h0c6.73,0,11.85-.79,15.37-2.38,3.52-1.58,5.33-4.76,5.44-9.53l.04-72.95Zm-31.12,80.4c-5.26,0-9.55-2.21-12.88-6.62-3.33-4.42-4.99-11.14-4.99-20.18s1.66-15.76,4.99-20.17c3.32-4.42,7.62-6.62,12.88-6.62,3.76,0,7.17,1.28,10.24,3.84v45.91c-3.07,2.56-6.48,3.84-10.24,3.84"/>
  <path class="cls-1" d="m252.12,115.66c-5.81-5.86-13.77-8.78-23.9-8.78-6.73,0-12.32,1.43-16.78,4.29v-3.56h-20.84l-.04,84.87h20.88s0-.01,0-.01v-25.87c4.46,2.86,10.05,4.29,16.78,4.29,10.13,0,18.09-2.93,23.9-8.78,5.81-5.86,8.71-13.6,8.71-23.23s-2.9-17.37-8.71-23.23m-17.57,43.4c-3.32,4.42-7.62,6.62-12.88,6.62-3.75,0-7.17-1.28-10.23-3.84v-45.92c3.07-2.56,6.48-3.84,10.23-3.84,5.26,0,9.55,2.21,12.88,6.62,3.33,4.42,4.99,11.14,4.99,20.18s-1.66,15.76-4.99,20.17"/>
  <path class="cls-1" d="m271.44,166.17c-4.12-3.13-6.18-7.37-6.18-12.73,0-4.57,1.29-8.19,3.87-10.87,2.58-2.68,5.71-4.61,9.38-5.81,3.67-1.19,8.44-2.38,14.29-3.57,4.66-.89,8.34-1.73,11.02-2.53,2.68-.79,4.91-1.96,6.7-3.5,1.79-1.54,2.68-3.55,2.68-6.03,0-2.2-.11-4.45-1.4-6.31-4.88-7.04-17.67-7.01-21.82.77-1.11,2.08-1.53,4.44-2.21,6.69-.68,2.25-1.74,4.54-3.69,5.85-1.44.97-3.22,1.3-4.95,1.32-1.79.02-3.63-.28-5.18-1.2-2.04-1.22-3.37-3.46-3.67-5.81-.95-7.49,6.79-12.21,12.81-14.39,8.3-3.01,17.7-3.66,26.31-1.72.3.07.6.14.9.21,8.02,1.99,16.26,6.83,18.65,15.25.79,2.77,1.06,5.68,1.06,8.55v39.75c-5.86,0-10.47-.57-13.85-1.71-3.38-1.14-5.56-3.35-6.55-6.63-2.68,2.88-6.03,5.11-10.05,6.7-4.02,1.59-8.02,2.38-11.99,2.38-6.65,0-12.04-1.56-16.15-4.69m37.74-8.41v-25.16c-1.29.69-3.42,1.64-6.4,2.83-3.57,1.49-6.43,2.83-8.56,4.02-2.14,1.19-3.95,2.78-5.43,4.77-1.49,1.99-2.23,4.42-2.23,7.3,0,3.28,1.17,5.88,3.5,7.81,2.33,1.94,5.14,2.91,8.41,2.91,4.17,0,7.74-1.49,10.72-4.47"/>
  <path class="cls-1" d="m230.24,185.46c1.57,0,3.04.46,3.33.61v-1.28c0-1.91-1.09-2.74-2.81-2.74-1.99,0-3.37.94-3.37.94-.06-.04-.86-.9-.12-1.53.56-.48,1.86-.9,3.67-.9,2.81,0,4.3,1.65,4.26,4.23-.02,1.84-.06,5.49.02,6.66.04.63.23,1.05-.84,1.05-.86,0-.88-.9-.76-1.82h-.1s-1.51,1.82-3.79,1.82c-2.51,0-3.65-1.68-3.6-3.54.04-2.12,1.59-3.46,4.13-3.5m-.11,5.68c1.64,0,3-1.07,3.42-1.99v-1.93c-.29-.13-1.49-.48-2.95-.48-1.63,0-2.79.78-2.81,2.18,0,1.34.86,2.22,2.35,2.22"/>
  <path class="cls-1" d="m238.19,186.3c.02-3.52,2.03-5.74,4.44-5.74s3.35,1.7,3.58,2.22h.15c-.04-1.57-.02-4.09-.06-4.46-.04-.61.02-.9.69-.9.84,0,1.05.38,1.03.9-.04.48-.15,9.68-.06,13.08,0,.36.17.88-.21,1.03-.13.06-.4.08-.63.08-.9,0-.82-.97-.75-1.95h-.1s-.96,1.95-3.56,1.95-4.53-2.49-4.51-6.2m8.17,1.32v-2.7c-.19-.57-1.19-2.97-3.44-2.97-1.57,0-3.06,1.38-3.06,4.34s1.28,4.86,3.27,4.86c1.78,0,3.23-1.57,3.23-3.52"/>
  <path class="cls-1" d="m250.55,181.58c-.15-.38-.23-.82.31-.82h.57c.48,0,.57.19.73.59.29.75,2.87,7.75,3.46,9.58h.15c.63-1.82,3.1-8.55,3.48-9.56.15-.4.27-.61.71-.61h.73c.4,0,.42.42.29.77-.4.94-3.1,7.84-3.94,9.89-.14.38-.33.86-1.01.86h-.67c-.65,0-.88-.46-.98-.76-.9-2.2-3.52-9.11-3.83-9.95"/>
  <path class="cls-1" d="m267.63,180.56c3.39,0,5.18,2.6,5.13,5.89-.04,3.46-1.74,6.08-5.11,6.08s-5.16-2.58-5.11-6.06c.06-3.27,1.7-5.91,5.09-5.91m3.46,5.91c0-2.45-.96-4.53-3.44-4.53-2.66,0-3.42,2.1-3.42,4.53s.75,4.67,3.39,4.67,3.46-2.2,3.46-4.67"/>
  <path class="cls-1" d="m280.6,180.56c2.68,0,3.39,1.28,3.48,2.18.06.98-.59,1.42-1.38,1.15,0,0,.04-.19.04-.34,0-.65-.5-1.61-2.07-1.61-2.24,0-3.69,1.74-3.69,4.57-.02,2.91,1.28,4.63,3.54,4.63,1.87,0,3.04-.96,3.04-.96,0,0,.52.21.46.86-.04.67-1.4,1.47-3.54,1.47-3.27,0-5.22-2.01-5.22-5.97,0-3.35,2.12-5.97,5.34-5.97"/>
  <path class="cls-1" d="m290.35,185.46c1.57,0,3.04.46,3.33.61v-1.28c0-1.91-1.09-2.74-2.81-2.74-1.99,0-3.37.94-3.37.94-.06-.04-.86-.9-.12-1.53.56-.48,1.86-.9,3.67-.9,2.81,0,4.3,1.65,4.26,4.23-.02,1.84-.06,5.49.02,6.66.04.63.23,1.05-.84,1.05-.86,0-.88-.9-.76-1.82h-.1s-1.51,1.82-3.79,1.82c-2.51,0-3.65-1.68-3.6-3.54.04-2.12,1.59-3.46,4.13-3.5m-.11,5.68c1.64,0,3-1.07,3.42-1.99v-1.93c-.29-.13-1.49-.48-2.95-.48-1.63,0-2.79.78-2.81,2.18,0,1.34.86,2.22,2.35,2.22"/>
  <path class="cls-1" d="m299.8,182.17h-1.45c-.4,0-.44-.1-.44-.38v-.5c0-.12.06-.33.34-.33,1.78,0,2.01-.92,2.03-1.97,0-.27.13-.48.55-.48.34,0,.75,0,.73.52-.02.54-.04,1.24-.04,1.74.38.04,2.37.04,3.37,0,.33,0,.44.15.44.36v.67c0,.17-.04.36-.4.36-1.07-.02-3.58,0-3.48,0-.08,1.7-.1,4.82-.1,7.08,0,1.4.36,1.84,1.32,1.84.67,0,1.32-.25,1.72-.44.38-.19.55-.06.63.19l.1.46c.08.31.02.46-.23.61-.52.31-1.55.61-2.45.61-1.97,0-2.81-.88-2.77-3.21.02-1.45.13-6.71.13-7.12"/>
  <path class="cls-1" d="m312.42,180.56c2.83,0,4.4,2.07,4.4,4.17,0,1.82-.38,1.95-.98,1.95h-6.87l-.04.06c0,2.3,1.11,4.4,3.73,4.4,1.82,0,3.1-1.05,3.21-1.13,0,0,.27.11.44.46.17.36.1.73-.21.99-.34.29-1.65,1.05-3.44,1.05-3.79,0-5.36-2.58-5.36-6.03s1.93-5.91,5.13-5.91m2.72,4.9s.04-.38.04-.73c0-1.53-.92-2.79-2.79-2.79-2.49,0-3.33,2.26-3.4,3.52h6.14Z"/>
  <path class="cls-1" d="m320.11,189.15c.02-2.45.02-7.17.02-7.67,0-.46-.17-.92.67-.92.9,0,1.03.5,1.03,1.07,0,.29-.04.67-.04,1.09h.15c.19-.33,1.3-2.16,3.79-2.16,2.81,0,4.17,1.78,4.15,4.51-.02,1.72-.08,4.11-.08,6.45,0,.48.19.98-.69.98-.94,0-1.01-.44-1.01-.82,0-2.03.06-4.23.06-6.64,0-1.72-.88-3.1-2.7-3.1-2.12,0-3.31,1.82-3.69,2.79,0,1.51-.04,3.67-.04,4.76,0,.78,0,1.61.02,1.76.04.57.04,1.05-.56,1.05h-.55c-.61,0-.61-.59-.59-.98.02-.4.06-1.32.06-2.16"/>
</svg>