<svg width="221" height="220" xmlns="http://www.w3.org/2000/svg"><g fill="none" fill-rule="evenodd"><path d="M3.911 15.516s0-6.043 6.756-7.386c6.757-1.343 122.204 0 122.204 0s73.055-2.99 81.838 67.666c8.783 70.655 0 6.195 0 6.195l1.351 131.606-7.431 4.7H36.341l-20.269-9.4S3.911 205.54 3.911 182.038V18.873" fill="#FFFFFE"/><path d="M5.185 15.004s0-6.026 6.737-7.365c6.737-1.339 121.851 0 121.851 0s72.844-2.981 81.603 67.471c8.758 70.451 0 6.177 0 6.177l1.347 131.227-7.411 4.688H37.522l-20.211-9.375S5.185 204.48 5.185 181.046V18.352" fill="#FFFFFE"/><path d="M137.349 9.462c40.912 0 74.196 33.08 74.196 73.739v126.576c0 .776-.634 1.407-1.415 1.407H38.038c-16.248 0-29.468-13.138-29.468-29.286V10.869c0-.776.635-1.407 1.415-1.407h127.364Zm0-8.518H9.985C4.47.944 0 5.388 0 10.869v171.029c0 20.878 17.03 37.804 38.038 37.804H210.13c5.515 0 9.986-4.444 9.986-9.925V83.201c0-45.429-37.056-82.257-82.767-82.257Z" fill="#00ACDD"/><path d="M82.027 123.695c0 14.008-11.453 25.39-25.549 25.39H34.749V98.232h21.729c14.096 0 25.549 11.455 25.549 25.463m-12.48 0c0-7.151-5.873-12.988-13.069-12.988h-9.249v25.975h9.249c7.196 0 13.069-5.836 13.069-12.987m41.32-4.088h22.906v20.359l-1.763 1.821c-4.699 4.817-12.553 7.953-20.113 7.953-14.464 0-26.21-11.675-26.21-26.045 0-14.374 11.746-26.048 26.21-26.048 7.633 0 14.901 3.357 19.892 9.119l-9.469 8.101c-2.642-3.064-6.462-4.817-10.423-4.817-7.564 0-13.73 6.131-13.73 13.645 0 7.514 6.166 13.57 13.73 13.57 3.228 0 6.827-1.096 9.396-2.699v-2.552h-10.426v-12.407m71.854 3.796c2.205 2.698 3.599 6.129 3.599 9.922 0 8.681-7.194 15.76-15.931 15.76h-29.292V98.232h28.78c8.734 0 15.927 7.148 15.927 15.833 0 3.502-1.174 6.71-3.083 9.338Zm-29.145-5.911h16.301c1.833 0 3.376-1.531 3.376-3.427 0-1.824-1.543-3.358-3.376-3.358h-16.301v6.785Zm20.189 15.833c0-1.897-1.616-3.428-3.524-3.428h-16.665v6.785h16.813c1.836 0 3.376-1.533 3.376-3.357ZM45.038 64.302c3.052 0 5.348 1.02 7.313 2.792.15.15.181.391.028.541-.151.18-.332.36-.483.51-.181.211-.332.18-.514 0-1.69-1.561-3.897-2.523-6.375-2.523-5.256 0-9.394 4.264-9.394 9.458 0 5.196 4.138 9.457 9.394 9.457 3.686 0 5.981-1.411 6.286-1.649v-5.646h-5.167c-.332 0-.393-.119-.393-.391v-.598c0-.242.061-.361.393-.361h6.194c.212 0 .391.181.391.361v6.965c0 .449-.179.599-.422.779-.544.36-3.292 1.921-7.251 1.921-6.071 0-10.937-4.744-10.937-10.778 0-6.005 4.866-10.838 10.937-10.838m24.94.69c0-.211.151-.391.39-.391h7.495c3.685 0 6.734 2.673 6.734 6.336 0 3.033-2.114 5.554-4.982 6.366l4.411 7.775c.15.241.089.54-.212.54h-.787c-.363 0-.483-.088-.633-.36l-4.32-7.775c-.394.028-.726.028-1.118.028h-5.558v7.716c0 .211-.181.391-.486.391h-.544a.398.398 0 0 1-.39-.391V64.992Zm7.823 11.138c2.901 0 5.349-2.221 5.349-5.193 0-2.854-2.448-4.955-5.38-4.955h-6.344V76.13h6.375Zm33.243-11.828c6.074 0 10.906 4.833 10.906 10.838 0 6.034-4.832 10.778-10.906 10.778-6.04 0-10.875-4.744-10.875-10.778 0-6.005 4.835-10.838 10.875-10.838m0 20.296c5.287 0 9.578-4.203 9.578-9.458 0-5.254-4.291-9.518-9.578-9.518-5.284 0-9.545 4.264-9.545 9.518 0 5.255 4.261 9.458 9.545 9.458m27.75-19.606c0-.211.18-.391.39-.391h12.115c.212 0 .392.18.392.391v.51c0 .211-.18.391-.392.391h-11.057v8.285h9.577a.4.4 0 0 1 .395.391v.51a.4.4 0 0 1-.395.391h-9.577v8.887h11.057c.212 0 .392.18.392.391v.479c0 .211-.18.391-.392.391h-12.115c-.21 0-.39-.18-.39-.391V64.992m29.588 0c0-.211.18-.391.39-.391h6.495c3.747 0 6.83 2.853 6.83 6.726 0 3.933-3.083 6.816-6.798 6.816h-5.497v7.084c0 .211-.181.391-.485.391h-.545c-.21 0-.39-.18-.39-.391V64.992Zm6.827 11.77c2.961 0 5.469-2.224 5.469-5.465 0-3.183-2.508-5.285-5.5-5.285h-5.376v10.75h5.407Z" fill="#002E42"/></g></svg>