<svg xmlns="http://www.w3.org/2000/svg" id="Layer_2" viewBox="0 0 853.86 158.81">
  <defs>
    <style>
      .cls-1{fill:#fff}
    </style>
  </defs>
  <path d="M55.35 45.6c-16.53 0-29.46 5.54-38.52 16.45V0H0v156.48h16.83V102.2c0-12.75 3.31-22.46 10.13-29.72 6.74-7.21 15.63-10.69 27.14-10.69 8.67 0 15.46 2.83 20.74 8.67 5.37 5.97 7.99 13.7 7.99 23.62v62.39h16.83V92.62c0-13.83-4.12-25.25-12.24-33.92-8.24-8.67-19.02-13.1-32.08-13.1h.01ZM318.96 45.6c-16.53 0-29.46 5.54-38.52 16.45V48.09h-16.83v108.38h16.83v-54.28c0-12.75 3.31-22.46 10.13-29.72 6.74-7.21 15.63-10.69 27.14-10.69 8.67 0 15.46 2.83 20.74 8.67 5.37 5.97 7.99 13.7 7.99 23.62v62.39h16.83V92.61c0-13.83-4.12-25.25-12.24-33.92-8.24-8.67-19.02-13.1-32.08-13.1h.01ZM473 62.05c-9.06-10.91-21.99-16.45-38.52-16.45-13.1 0-23.88 4.42-32.08 13.14-8.12 8.63-12.24 20.05-12.24 33.88v63.85h16.83V94.08c0-9.96 2.58-17.65 7.94-23.57 5.32-5.88 12.11-8.72 20.78-8.72 11.51 0 20.4 3.48 27.14 10.74 6.83 7.21 10.13 16.92 10.13 29.67v54.28h16.79V48.1h-16.79v13.96h.02ZM518.95 12.41c-2.15 2.1-3.31 4.85-3.31 7.99s1.12 5.8 3.31 7.86c2.1 2.06 4.94 3.13 8.12 3.13s5.84-1.07 7.9-3.09c2.23-2.1 3.35-4.77 3.35-7.9s-1.16-5.88-3.26-7.94c-4.21-4.29-12.15-4.08-16.1-.04h-.01ZM518.78 48.1h16.62v108.38h-16.62zM837.07 0h16.79v156.48h-16.79zM791.29 62.82c-3.78-4.17-8.29-7.69-13.35-10.43-8.12-4.51-17.22-6.78-27.1-6.78-15.12 0-28.17 5.32-38.82 15.85-10.65 10.52-16.06 24.22-16.06 40.75s5.37 30.4 15.93 40.84c10.61 10.43 23.7 15.76 38.95 15.76 9.79 0 18.89-2.23 27.05-6.66 5.15-2.79 9.62-6.27 13.4-10.43v14.77h16.79V48.11h-16.79v14.71Zm-11.68 68.84c-7.9 7.64-16.96 11.34-27.7 11.34-11.29 0-20.48-3.61-28.08-11.12-7.6-7.43-11.29-17.13-11.29-29.67s3.74-22.07 11.42-29.59c7.69-7.6 16.83-11.25 27.95-11.25s19.62 3.69 27.57 11.34 11.81 17.31 11.81 29.5-3.91 21.94-11.68 29.46ZM621.8 45.6c-9.83 0-18.98 2.28-27.18 6.74-5.11 2.79-9.62 6.36-13.44 10.61V0h-16.79v156.48h16.79v-15.07c3.82 4.25 8.29 7.82 13.44 10.65 8.29 4.47 17.43 6.74 27.18 6.74 15.16 0 28.17-5.32 38.73-15.76 10.61-10.43 16.02-24.18 16.02-40.84s-5.41-30.19-16.02-40.71C649.97 50.93 636.91 45.6 621.8 45.6Zm26.84 86.27c-7.6 7.51-16.79 11.12-28.08 11.12s-19.8-3.69-27.7-11.34c-7.77-7.51-11.68-17.39-11.68-29.46s3.86-21.86 11.81-29.5 16.96-11.34 27.57-11.34S640.83 65 648.51 72.6c7.69 7.51 11.42 17.22 11.42 29.59s-3.69 22.24-11.29 29.67ZM217.84 62.82c-3.78-4.17-8.24-7.69-13.31-10.43-8.16-4.51-17.26-6.78-27.1-6.78-15.12 0-28.21 5.32-38.86 15.85-10.65 10.52-16.06 24.22-16.06 40.75s5.37 30.4 15.97 40.84c10.56 10.43 23.66 15.76 38.95 15.76 9.75 0 18.85-2.23 27.1-6.66 5.07-2.79 9.53-6.27 13.31-10.39v14.73h16.79V48.11h-16.79v14.71Zm-11.68 68.84c-7.9 7.64-16.96 11.34-27.7 11.34-11.29 0-20.48-3.61-28.08-11.12-7.51-7.39-11.29-17.35-11.29-29.67s3.82-22.11 11.42-29.59c7.69-7.6 16.83-11.25 27.95-11.25s19.62 3.69 27.61 11.34c7.9 7.64 11.77 17.26 11.77 29.5s-3.91 21.94-11.68 29.46Z" class="cls-1"/>
</svg>
