<svg xmlns="http://www.w3.org/2000/svg" width="237" height="58" class="c-logo__svg c-svg" viewBox="0 0 237 58">
  <path fill="white" d="M25.89925 38.02771c-.63375 0-1.14725.5117-1.14725 1.14324v17.03847c0 .63153.5135 1.14 1.14725 1.14s1.14725-.50847 1.14725-1.14v-17.0417c0-.63154-.5135-1.14-1.14725-1.14M25.89925 19.8622c.63375 0 1.14725-.5117 1.14725-1.14324V1.68373c0-.63153-.5135-1.14323-1.14725-1.14323S24.752 1.0522 24.752 1.68373V18.7222c.00325.63153.51675 1.14 1.14725 1.14"/>
  <path fill="white" d="M15.808 6.47368c.01625.01295 1.57625 1.5675 1.57625 4.86767v10.63892c0 2.0209 1.3455 5.02636 5.044 5.02636H29.536c3.6985 0 5.044-3.00545 5.044-5.02636V11.34135c0-3.28722 1.51775-4.81262 1.573-4.86767l1.937-1.81364c.4615-.43074.48425-1.15295.052-1.61284-.4355-.45989-1.157-.48256-1.6185-.05182l-1.937 1.81364c-.09425.08744-2.301 2.20227-2.301 6.53233v10.63244c-.0325 2.61682-2.29775 2.7496-2.7495 2.7496h-7.10775c-.455 0-2.717-.13278-2.7495-2.73988V11.34135c0-4.33006-2.20675-6.44489-2.301-6.53233L15.444 2.99538c-.4615-.43398-1.18625-.40807-1.62175.05182-.43225.45989-.4095 1.1821.052 1.61284zM36.16275 51.49396c-.065-.06153-1.586-1.58693-1.586-4.87415V35.97765c0-2.0209-1.34225-5.02312-5.044-5.02312H22.425c-3.6985 0-5.044 3.00222-5.044 5.02312v10.64216c0 3.28722-1.51775 4.81262-1.57625 4.86444L13.871 53.29788c-.4615.43074-.48425 1.15296-.052 1.61608.22425.23642.52975.35625.83525.35625.2795 0 .56225-.1004.7865-.3109l1.93375-1.8104c.09425-.09069 2.29775-2.19904 2.29775-6.53233V35.98089c.03575-2.61358 2.301-2.74636 2.75275-2.74636h7.10775c.455 0 2.717.13278 2.75275 2.73989v10.64216c0 4.3333 2.2035 6.44164 2.29775 6.53232l1.937 1.8104c.221.21051.50375.31091.7865.31091.3055 0 .60775-.11983.83525-.35949.4355-.45988.4095-1.1821-.052-1.61284zM13.90675 13.1064c0-.09392-.01625-2.28971-1.534-3.94465l-2.0215-2.20552c-.42575-.46312-1.1505-.49875-1.6185-.07125S8.229 8.03146 8.658 8.49783l2.0215 2.20227c.91.99102.936 2.39983.936 2.4063v31.27552c0 2.08892-1.31625 3.58517-1.326 3.59488l-1.62825 1.77801c-.42575.46637-.39325 1.18858.07475 1.61284.21775.2008.49725.29796.77025.29796.312 0 .62075-.1263.84825-.3692l1.625-1.77802c.08125-.08744 1.92725-2.14074 1.92725-5.13647zM5.317 11.4806c-.42575-.46312-1.15375-.49874-1.6185-.07124-.46475.42426-.5005 1.14972-.0715 1.61284l1.58925 1.73267c.6045.65744.62725 1.6096.62725 1.6096v22.92631c0 3.05403-.962 4.25557-.95875 4.25557l-1.261 1.36994c-.429.46313-.39325 1.18534.0715 1.61284.21775.2008.49725.29796.77025.29796.312 0 .62075-.12631.84825-.3692l1.261-1.36995c.15925-.17489 1.55675-1.81364 1.55675-5.79716v-22.9263c0-.1846-.03575-1.8525-1.2285-3.14796zM1.2675 19.43146c-.63375 0-1.14725.5117-1.14725 1.14324v17.60199c0 .63153.5135 1.14324 1.14725 1.14324s1.14725-.5117 1.14725-1.14324V20.5747c0-.6283-.5135-1.14324-1.14725-1.14324M41.29775 10.7001l2.0215-2.20551c.42575-.46313.39325-1.18858-.07475-1.61284-.468-.42427-1.19275-.38864-1.6185.07448l-2.01825 2.20552C38.09 10.81993 38.0705 13.01248 38.0705 13.1064v31.27552c0 2.99573 1.8525 5.04903 1.92725 5.13647l1.625 1.77478c.2275.24937.53625.37244.84825.37244.27625 0 .5525-.1004.77025-.29796.468-.42426.50375-1.14647.07475-1.61284l-1.625-1.77153c-.00975-.01295-1.3325-1.51244-1.3325-3.60136v-31.2658c0-.0162.0325-1.425.93925-2.41602M46.75775 14.75163l1.58925-1.73267c.42575-.46312.3965-1.18858-.0715-1.61284-.46475-.42426-1.19275-.39187-1.6185.07125l-1.58925 1.73267c-1.19275 1.30193-1.2285 2.96335-1.2285 3.1512V39.2843c0 3.98353 1.40075 5.62228 1.56 5.79716l1.261 1.36994c.22425.24614.533.3692.845.3692.27625 0 .5525-.10039.7735-.29795.468-.42426.5005-1.14647.0715-1.61284l-1.2415-1.34727c-.00975-.01295-.975-1.21125-.975-4.27824V16.36123c0-.00647.02275-.9554.624-1.6096M50.7065 19.43146c-.63375 0-1.14725.5117-1.14725 1.14324v17.60199c0 .63153.5135 1.14324 1.14725 1.14324s1.14725-.5117 1.14725-1.14324V20.5747c0-.6283-.5135-1.14324-1.14725-1.14324M67.20153 9.0755h4.05985v9.52437H82.287V9.0755h4.05985v22.91008H82.287v-9.6533H71.26138v9.6533h-4.05985zM92.28547 9.0755h17.13002v3.60024H96.34206v5.95959h11.58796v3.59702H96.34206v6.1562h13.2392v3.59702h-17.2958zM121.0652 20.33392l-8.08719-11.25843h4.7847l5.7436 8.21579 5.7761-8.21579h4.65793l-8.05468 11.19397 8.38298 11.71934h-4.7847l-6.07514-8.67347-6.10765 8.67347h-4.65144zM146.18164 8.91111h3.7608l10.1675 23.07446h-4.29063l-2.3436-5.5309h-10.9281l-2.3761 5.5309h-4.15736zm5.81186 13.97876-3.99484-9.16661-3.96233 9.16661zM161.62792 20.59822v-.06447c0-6.41727 4.95047-11.84826 11.91625-11.84826 4.02734 0 6.50095 1.11198 8.8803 3.11033l-2.57437 3.04587c-1.78127-1.5052-3.53327-2.45603-6.46846-2.45603-4.25812 0-7.49235 3.70016-7.49235 8.08363v.06769c0 4.71223 3.13671 8.18355 7.8564 8.18355 2.17783 0 4.15737-.68975 5.57783-1.73405v-4.29h-5.90612v-3.50033h9.83595v9.6243c-2.27859 1.92744-5.54532 3.5648-9.63767 3.5648-7.23556-.00645-11.98776-5.1119-11.98776-11.78703M187.50497 20.59822v-.06447c0-6.4495 5.01549-11.84826 12.11128-11.84826 7.09905 0 12.04952 5.3343 12.04952 11.7838v.06769c0 6.44628-5.01873 11.84826-12.11453 11.84826-7.09904-.00644-12.04627-5.34074-12.04627-11.78702m19.90268 0v-.06447c0-4.45115-3.26673-8.15132-7.8564-8.15132s-7.7914 3.63248-7.7914 8.08364v.06768c0 4.45116 3.26998 8.1481 7.8564 8.1481 4.58968 0 7.7914-3.63248 7.7914-8.08363M232.72237 9.0755v15.84173L220.34455 9.07549h-3.76405v22.91008h3.99158V15.68615l12.74513 16.29942h3.4V9.0755zM234.00841 47.59455c1.13767 0 2.0478-.45447 2.68165-.99273v-2.67843h-2.73365v.97339h1.64474v1.19256c-.39656.2933-.9459.48347-1.55373.48347-1.3132 0-2.18432-.96372-2.18432-2.27554v-.01611c0-1.22157.90038-2.24975 2.08355-2.24975.81587 0 1.3067.2643 1.80077.6833l.7151-.84769c-.65984-.55438-1.34894-.8638-2.47036-.8638-1.93728 0-3.31549 1.51166-3.31549 3.29728v.01933c0 1.85653 1.3197 3.27472 3.33174 3.27472m-12.41357-.1096h1.11166V42.95l3.54627 4.53496h.9459v-6.37537h-1.10842v4.40603l-3.4455-4.40603h-1.04666v6.37537zm-4.96023 0h1.12791v-6.37214h-1.12791zm-7.85966 0h4.50841v-1.0185h-3.3805V41.1128h-1.1279zm-8.26596 0h4.8107v-1.00239h-3.68279v-1.71149h3.22448v-1.0024h-3.22448v-1.65669h3.63729v-1.0024h-4.7652zm-8.7698 0h1.12792v-1.85007l1.00115-1.01852 2.19407 2.8686h1.36845l-2.79216-3.63248 2.6719-2.73967h-1.3847l-3.0587 3.20702v-3.20702h-1.12792zm-8.76978 0h1.12791v-1.85007l1.00115-1.01852 2.19407 2.8686h1.36845l-2.79216-3.63248 2.6719-2.73967h-1.3847l-3.0587 3.20702v-3.20702h-1.12792zm-4.95698 0h1.12791v-6.37214h-1.12791zm-10.68107.04513h.97189l1.57973-4.58008 1.57648 4.58008h.97515l2.23958-6.4205H173.491l-1.53422 4.72513-1.57974-4.74124h-.95564l-1.57973 4.74124-1.53422-4.72512h-1.21893zm-8.22696-.04512h1.13767v-5.33752h2.03804v-1.03785h-5.21376v1.03785h2.03805zm-10.94761 0h1.11166V42.95l3.54627 4.53496h.9459v-6.37537h-1.11167v4.40603l-3.4455-4.40603h-1.04666zm-6.8325-.9186c-1.27744 0-2.18433-1.0314-2.18433-2.26909v-.01934c0-1.23768.89063-2.24975 2.16807-2.24975 1.27744 0 2.18757 1.02818 2.18757 2.26587v.01934c-.00325 1.24413-.89388 2.25297-2.17132 2.25297m-.0195 1.02819c1.9763 0 3.37075-1.50199 3.37075-3.29728v-.01934c0-1.79529-1.37496-3.27793-3.35125-3.27793s-3.37074 1.50198-3.37074 3.29727v.01934c0 1.7953 1.3782 3.27794 3.35124 3.27794m-11.2304-1.1281v-4.33513h1.26769c1.34894 0 2.22982.9186 2.22982 2.16595v.01934c0 1.24736-.88088 2.14984-2.22983 2.14984zm-1.12792 1.0185h2.3956c2.0218 0 3.41626-1.39239 3.41626-3.18768v-.01934c0-1.79529-1.39446-3.16834-3.41626-3.16834h-2.3956zm-8.26596 0h4.8107v-1.00239h-3.68279v-1.71149h3.22448v-1.0024h-3.22448v-1.65669h3.63729v-1.0024h-4.7652zm-6.8325-.91859c-1.27745 0-2.18758-1.0314-2.18758-2.26909v-.01934c0-1.23768.89063-2.24975 2.16807-2.24975 1.27744 0 2.18433 1.02818 2.18433 2.26587v.01934c.00324 1.24413-.88739 2.25297-2.16483 2.25297m-.01625 1.02819c1.97304 0 3.37075-1.50199 3.37075-3.29728v-.01934c0-1.79529-1.37496-3.27793-3.35125-3.27793-1.97304 0-3.37074 1.50198-3.37074 3.29727v.01934c0 1.7953 1.37495 3.27794 3.35124 3.27794m-9.33212 0c1.13767 0 2.0478-.45447 2.68164-.99273v-2.67843h-2.7369v.97339h1.64474v1.19256c-.39656.2933-.94589.48347-1.55373.48347-1.31319 0-2.18432-.96372-2.18432-2.27554v-.01611c0-1.22157.90038-2.24975 2.08356-2.24975.81587 0 1.30669.2643 1.80076.6833l.7151-.84769c-.65984-.55438-1.34894-.8638-2.47036-.8638-1.93728 0-3.31548 1.51166-3.31548 3.29728v.01933c.00325 1.85653 1.3262 3.27472 3.33499 3.27472m-9.1826-.1096h1.13766v-5.33751h2.03805v-1.03785h-5.21376v1.03785h2.03805zm-7.1803.09026c1.34894 0 2.29483-.7091 2.29483-1.90166v-.01934c0-1.05396-.70536-1.54066-2.06405-1.8662-1.23194-.29008-1.52448-.50925-1.52448-1.00239v-.01934c0-.419.3868-.75421 1.04665-.75421.58834 0 1.16693.22884 1.74551.6543l.6046-.8477c-.65336-.51892-1.39446-.80255-2.3306-.80255-1.27744 0-2.19407.75421-2.19407 1.84686v.01933c0 1.17323.77036 1.57612 2.13881 1.90488 1.19618.27397 1.45296.51893 1.45296.97339v.01934c0 .48347-.44206.80256-1.14091.80256-.79962 0-1.41396-.29975-2.0283-.82835l-.67935.80256c.76711.68331 1.69675 1.01852 2.6784 1.01852m-9.8262-2.62042 1.1019-2.5495 1.11167 2.5495zm-2.23308 2.53017h1.15717l.65985-1.54066h3.0392l.65334 1.54066h1.19292l-2.82791-6.4205h-1.04666zm-5.4088.04512h.9914l2.6719-6.4205H73.113l-1.92753 4.89918-1.93729-4.89917H68z"/>
</svg>
