<svg xmlns="http://www.w3.org/2000/svg" width="151.866" height="58.301" viewBox="0 0 151.866 58.301">
  <g fill="white">
    <path d="M83.957 42.481 64.38 47.768c1.486 2.309 4.127 3.2 7.342 2.328a10.493 10.493 0 0 0 6.077-4.413l5.852 4.334c-1.866 3.584-6.025 6.431-10.56 7.656-8.44 2.279-16-1.777-18.2-9.929-2.357-8.727 2.96-15.953 10.653-18.03 7.636-2.062 15.565 1.525 17.767 9.678.199.742.405 1.736.646 3.089Zm-9.674-2.747c-.77-2.625-3.589-3.711-6.631-2.89a5.793 5.793 0 0 0-4.678 5.944ZM117.017 29.973v27.711h-8.742v-3.151c-2.021 2.616-5.769 3.687-8.622 3.687-6.9 0-13.44-5.471-13.44-14.451s6.542-14.45 13.44-14.45c2.854 0 6.6 1.071 8.622 3.687v-3.033Zm-9.1 13.8a6.395 6.395 0 1 0-6.364 6.244 6.345 6.345 0 0 0 6.366-6.249ZM41.55 20.947v36.23a.5.5 0 0 0 .5.5h7.8a.5.5 0 0 0 .5-.5v-38.3a.5.5 0 0 0-.633-.487l-7.8 2.065a.5.5 0 0 0-.367.492ZM143.124 18.04v14.334a.231.231 0 0 1-.408.149c-2.089-2.267-5.543-3.205-8.215-3.205-6.9 0-13.44 5.471-13.44 14.45s6.542 14.451 13.44 14.451c2.671 0 6.126-.939 8.215-3.2a.231.231 0 0 1 .408.149v2.287a.233.233 0 0 0 .233.233h8.276a.233.233 0 0 0 .233-.233v-41.6a.233.233 0 0 0-.292-.225l-8.277 2.193a.233.233 0 0 0-.173.217Zm-6.72 31.973a6.245 6.245 0 1 1 6.364-6.244 6.358 6.358 0 0 1-6.364 6.244Z"/>
  </g>
  <path fill="#4629d6" d="m33.417 22.772-17.068 4.573L.528 31.589a.706.706 0 0 0-.05 1.352 39.378 39.378 0 0 1 14.494 9.37 39.189 39.189 0 0 1 9.52 14.928.706.706 0 0 0 1.354-.038c1.357-4.989 4.327-16.027 4.327-16.027l4.573-17.068a1.086 1.086 0 0 0-1.329-1.334Z"/>
  <g fill="white">
    <path d="M57.042 2.951A2.942 2.942 0 0 1 60.094.098a2.884 2.884 0 0 1 2.986 2.853 2.926 2.926 0 0 1-2.986 2.853 2.986 2.986 0 0 1-3.052-2.853Zm.6 5.209h4.911v15.46h-4.911ZM81.161 15.295v8.328h-4.91v-7.767c0-2.388-1.46-3.284-2.688-3.284-1.327 0-2.985.7-2.985 3.284v7.763h-4.91V8.159h4.91v2.754c.531-2.189 2.985-3.151 4.445-3.151 4.114 0 6.138 2.786 6.138 7.533Z"/>
  </g>
  <path fill="white" d="M91.232 8.234h-2.411a.2.2 0 0 0-.2.2v3.281a.2.2 0 0 0 .2.2h2.411a.2.2 0 0 1 .2.2V23.49a.2.2 0 0 0 .2.2h4.5a.2.2 0 0 0 .2-.2V12.121a.2.2 0 0 1 .2-.2h2.842a.2.2 0 0 0 .2-.2V8.439a.2.2 0 0 0-.2-.2h-2.842a.2.2 0 0 1-.2-.2V3.136a.2.2 0 0 0-.256-.2l-4.5 1.193a.2.2 0 0 0-.152.2v3.7a.2.2 0 0 1-.192.205ZM110.646 7.834c-1.393 0-3.882.862-4.445 2.853V.26l-4.91 1.3v22.135h4.91v-7.761c0-2.588 1.659-3.285 2.985-3.285 1.228 0 2.688.9 2.688 3.285v7.763h4.91v-8.33c-.001-4.744-2.025-7.533-6.138-7.533ZM134.989 13.549c-1.194-4.557-5.6-6.592-9.871-5.474a8.033 8.033 0 0 0-6.019 10.013c1.194 4.557 5.4 6.852 10.113 5.616a9.446 9.446 0 0 0 5.923-4.227l-3.246-2.442a5.855 5.855 0 0 1-3.408 2.436 3.469 3.469 0 0 1-4.087-1.33l10.944-2.866c-.129-.755-.24-1.307-.349-1.726Zm-11.359 1.809a3.233 3.233 0 0 1 2.635-3.3c1.7-.445 3.269.173 3.687 1.641Z"/>
  <path fill="#fff" d="M106.202.475s.034-.2-.138-.172.165-.323.2-.3.268.131.268.192a.661.661 0 0 1-.172.254c-.021.006-.158.026-.158.026Z"/>
  <script/>
</svg>
