<svg width="117" height="32" viewBox="0 0 117 32" fill="none" xmlns="http://www.w3.org/2000/svg">
<path d="M0 3.59323C0 1.53995 1.51527 0 3.69152 0C5.86777 0 7.37992 1.53995 7.37992 3.59323C7.37992 5.6465 5.86465 7.14526 3.69152 7.14526C1.51839 7.14526 0 5.6465 0 3.59323ZM0.542504 31.4487V9.77206H6.79689V31.4487H0.542504Z" fill="white"/>
<path d="M45.5923 3.59323C45.5923 1.53995 47.1044 0 49.2807 0C51.4569 0 52.9722 1.53995 52.9722 3.59323C52.9722 5.6465 51.4445 7.14526 49.2807 7.14526C47.1169 7.14526 45.5923 5.6465 45.5923 3.59323ZM46.1441 31.4487V9.77206H52.3798V31.4487H46.1441Z" fill="white"/>
<path d="M60.1743 31.4486V9.77204H66.2728V13.0516C67.7881 10.6814 70.8186 9.2207 74.585 9.2207C77.7028 9.2207 80.141 10.0889 82.0054 11.8253C83.9104 13.6821 84.7242 16.2868 84.7242 20.8654V31.4486H78.4636V20.7102C78.4636 18.2228 77.9211 16.7209 76.7176 15.7734C75.6383 14.9596 74.3193 14.5418 72.9762 14.5884C70.0236 14.5884 67.6914 16.0903 66.7997 18.4985C66.5108 19.389 66.3788 20.3243 66.41 21.2615V31.4486H60.1743Z" fill="white"/>
<path d="M93.5009 28.9201C91.2374 26.8668 90.1108 24.1038 90.1212 20.6309C90.1212 17.1962 91.2467 14.4711 93.5508 12.3925C95.8549 10.3139 98.8729 9.22388 102.564 9.22388C105.994 9.22388 108.934 10.4089 110.983 12.5795V9.77205H117.003V31.4487H110.995V28.6444C108.937 30.8149 105.985 32 102.577 32C98.7825 32.0032 95.752 30.9734 93.5009 28.9201ZM110.786 20.6309C110.786 16.8001 107.98 14.3919 103.522 14.3919C99.2876 14.3919 96.4909 16.8413 96.4909 20.6309C96.4909 24.4206 99.297 26.8288 103.522 26.8288C107.99 26.8288 110.786 24.4206 110.786 20.6309Z" fill="white"/>
<path d="M40.4538 9.77209L31.9702 19.9846L41.4515 31.4487H32.8868L26.4609 19.9846L32.1853 9.77209H40.4538Z" fill="white"/>
<path d="M12.4713 9.77209L20.9519 19.9846L11.4736 31.4487H20.0352L26.4611 19.9846L20.7367 9.77209H12.4713Z" fill="white"/>
</svg>
