<svg xmlns="http://www.w3.org/2000/svg" xml:space="preserve" width="320" height="320" enable-background="new 0 0 320 320" viewBox="0 0 320 320">
  <circle cx="160" cy="160" r="128" fill="#0097DB"/>
  <path fill="#FFF" d="M160.96 141.12c15.68 0 28.48-12.8 28.48-28.48s-12.8-28.48-28.48-28.48-28.48 12.8-28.48 28.48 12.8 28.48 28.48 28.48z"/>
  <path fill="#FFF" d="M241.92 134.08s-28.16-.32-60.16 1.6c-5.44 5.76-15.04 11.84-27.2 11.84-9.6 0-17.6-3.84-22.72-7.68-31.04 3.2-54.08 8-54.08 8v12.48h164.16v-26.24zM228.8 200c-7.04 0-14.4-3.52-14.4-8.64s7.04-8.64 14.4-8.64c5.44 0 9.28 1.6 13.12 3.84v-14.08c-5.12-1.6-11.84-2.24-16.96-2.24-18.88 0-32.64 6.4-32.64 20.8 0 16 14.08 21.44 33.6 21.44 5.44 0 11.52-.96 16-2.24v-13.76c-3.84 1.92-7.68 3.52-13.12 3.52zM176 192c6.4-.32 12.48-3.52 12.48-10.56 0-6.08-3.2-10.24-13.44-10.24h-39.36v40.64h38.72c11.2 0 14.72-5.12 14.72-10.56-.32-8-6.4-8.96-13.12-9.28zm-20.8-11.52h9.92c3.52 0 4.8 1.28 4.8 4.16 0 2.24-1.6 3.84-5.12 3.84h-9.6v-8zm9.92 23.04h-10.24v-8h10.24c3.84 0 5.12 1.6 5.12 4.16 0 2.24-1.28 3.84-5.12 3.84zM109.12 171.2 97.6 189.44h-.32V171.2h-19.2v40.64h19.2v-15.36h.32l11.52 15.36h22.4l-16.32-19.52 17.28-21.12z"/>
</svg>
