<svg xmlns="http://www.w3.org/2000/svg" width="4124" height="590" viewBox="0 0 4124 590" >
<style type="text/css">
	.st0{fill:#40205E;}
	.st1{fill:#FFFFFF;}
	.st2{fill:#FAC0B8;}
	.st3{fill:#F9391F;}
</style>
<g>
	<path class="st0" d="M2187.5366211,82.6031036v32.097168h-49.581543v147.7011871h-36.2729492V114.7002716h-49.581543v-32.097168
		H2187.5366211z"/>
	<path class="st0" d="M2327.1450195,195.596756v66.8047028h-34.1850586v-64.7168121
		c0-19.0498047-11.4819336-27.9223633-23.2250977-27.9223633c-12.2646484,0-27.4003906,6.784668-27.4003906,28.7050781v63.9340973
		h-34.1850586V74.2522736h34.1850586v85.5935059c5.2192383-15.6572266,24.7910156-22.4423828,36.5336914-22.4423828
		C2310.7050781,137.4033966,2327.40625,159.0630646,2327.1450195,195.596756z"/>
	<path class="st0" d="M2443.2631836,140.5352325h34.1855469v121.8662262h-34.1855469V242.568924
		c-5.21875,15.917984-24.5297852,22.9638824-36.5336914,22.9638824c-31.8364258,0-48.5375977-21.3984528-48.2768555-57.9321442
		v-67.0654297h34.1855469v65.2387695c0,19.0498047,11.4819336,27.9223633,23.2246094,27.9223633
		c12.2651367,0,27.4003906-6.7851562,27.4003906-28.7050781V140.5352325z"/>
	<path class="st0" d="M2507.1904297,98.5210724c0-11.4819336,9.9165039-20.3544922,21.6591797-20.3544922
		c12.0039062,0,21.659668,8.8725586,21.659668,20.3544922s-9.6557617,20.6157227-21.659668,20.6157227
		C2517.1069336,119.136795,2507.1904297,110.003006,2507.1904297,98.5210724z M2511.8876953,262.4014587V140.5352325h34.1850586
		v121.8662262H2511.8876953z"/>
	<path class="st0" d="M2572.9458008,224.0410919h32.0976562c0,7.0458984,6.0019531,14.6132812,18.0058594,14.6132812
		c9.9165039,0,17.484375-4.9580078,17.484375-12.0039062c0-5.2192383-4.1757812-7.8286133-13.309082-10.1772461
		l-16.1791992-3.9145508c-31.3144531-8.3505859-35.4897461-25.8344727-35.4897461-38.6210938
		c0-18.7890625,19.5712891-36.5341797,47.7548828-36.5341797c22.1811523,0,48.2768555,10.6992188,48.015625,39.6655273h-32.6196289
		c0-8.3505859-6.784668-12.7866211-14.8740234-12.7866211c-7.8291016,0-14.0917969,4.4360352-14.0917969,10.6987305
		c0,5.7412109,5.2192383,8.6118164,12.0039062,10.4384766l20.09375,5.2192383
		c29.2270508,7.8286133,32.8803711,26.0952148,32.8803711,36.0117188c0,25.5737305-26.0957031,38.8823395-51.1474609,38.8823395
		C2597.9975586,265.5328064,2573.2070312,250.9195099,2572.9458008,224.0410919z"/>
	<path class="st0" d="M2758.9980469,98.5210724c0-11.4819336,9.9165039-20.3544922,21.6591797-20.3544922
		c12.0039062,0,21.659668,8.8725586,21.659668,20.3544922s-9.6557617,20.6157227-21.659668,20.6157227
		C2768.9145508,119.136795,2758.9980469,110.003006,2758.9980469,98.5210724z M2763.6953125,262.4014587V140.5352325h34.1850586
		v121.8662262H2763.6953125z"/>
	<path class="st0" d="M2951.3168945,195.596756v66.8047028h-34.1850586v-64.9780426
		c0-19.0498047-11.4819336-27.6611328-23.2250977-27.6611328c-12.2646484,0-27.4003906,6.5239258-27.4003906,28.7050781v63.9340973
		h-34.1850586V140.5352325h34.1850586v20.6152344c5.2192383-16.4399414,24.5297852-23.7470703,36.5336914-23.7470703
		C2934.8769531,137.4033966,2951.578125,159.0630646,2951.3168945,195.596756z"/>
	<path class="st0" d="M2241.293457,327.6031189h39.4042969l-61.0634766,179.7983398h-28.9663086l-26.0957031-97.5976562
		l-25.5737305,97.5976562h-28.9658203l-60.8027344-179.7983398h39.1435547l36.5336914,117.1689453l25.3125-91.8564453h29.4882812
		l24.7905273,91.8564453L2241.293457,327.6031189z"/>
	<path class="st0" d="M2405.1689453,457.5586853h-91.5952148c3.6533203,14.3525391,15.1352539,22.703125,31.3144531,22.703125
		c12.5258789,0,24.5297852-5.7407227,32.0976562-14.3525391l19.8325195,20.09375
		c-11.4819336,15.3964844-32.6196289,24.5297852-54.0175781,24.5297852c-37.5776367,0-64.9780273-26.3564453-64.9780273-63.934082
		c0-39.4042969,30.0097656-64.1953125,64.7167969-64.1953125c34.9682617,0,63.4121094,24.7910156,63.4121094,62.1079102
		C2405.9516602,447.9034119,2405.690918,452.0787048,2405.1689453,457.5586853z M2371.5058594,435.377533
		c-1.0439453-14.3525391-12.7871094-23.4858398-28.1835938-23.4858398c-14.0913086,0-26.0952148,7.0458984-29.7485352,23.4858398
		H2371.5058594z"/>
	<path class="st0" d="M2424.7358398,469.0411072h32.0976562c0,7.0458984,6.0019531,14.6132812,18.0058594,14.6132812
		c9.9165039,0,17.484375-4.9580078,17.484375-12.0039062c0-5.2192383-4.1757812-7.8286133-13.309082-10.1772461
		l-16.1791992-3.9145508c-31.3144531-8.3505859-35.4897461-25.8344727-35.4897461-38.6210938
		c0-18.7890625,19.5712891-36.5341797,47.7548828-36.5341797c22.1811523,0,48.2768555,10.6992188,48.015625,39.6655273h-32.6196289
		c0-8.3505859-6.784668-12.7866211-14.8740234-12.7866211c-7.8291016,0-14.0917969,4.4360352-14.0917969,10.6987305
		c0,5.7412109,5.2192383,8.6118164,12.0039062,10.4384766l20.09375,5.2192383
		c29.2270508,7.8286133,32.8803711,26.0952148,32.8803711,36.0117188c0,25.5737305-26.0957031,38.8823242-51.1474609,38.8823242
		C2449.7875977,510.5328064,2424.9970703,495.9195251,2424.7358398,469.0411072z"/>
	<path class="st0" d="M2624.3642578,385.5352478v26.6171875h-25.8344727v95.2490234h-34.1850586v-95.2490234h-22.1816406
		v-26.6171875h22.1816406v-44.362793h34.1850586v44.362793H2624.3642578z"/>
	<path class="st0" d="M2642.8896484,460.1685486v-30.2709961h91.8564453v30.2709961H2642.8896484z"/>
	<path class="st0" d="M2847.9980469,327.6031189h37.8383789l-54.5395508,179.7983398h-32.6196289l-54.5395508-179.7983398
		h37.5776367l33.1411133,121.3442383L2847.9980469,327.6031189z"/>
	<path class="st0" d="M2905.9287109,507.4014587V319.252533h34.1850586v188.1489258H2905.9287109z"/>
	<path class="st0" d="M3066.1499023,385.5352478h34.1855469v121.8662109h-34.1855469V489.917572
		c-8.0893555,12.5258789-23.746582,20.6152344-40.1870117,20.6152344c-33.6630859,0-58.7148438-26.0952148-58.7148438-63.934082
		c0-37.8383789,24.5297852-64.1953125,59.4975586-64.1953125c15.6577148,0,31.3149414,6.7851562,39.4042969,19.3110352V385.5352478z
		 M3065.1064453,446.5987244c0-18.527832-14.8745117-32.3583984-31.8369141-32.3583984
		c-17.7446289,0-31.0537109,14.6132812-31.0537109,32.3583984c0,16.9619141,13.309082,32.0976562,31.3149414,32.0976562
		C3050.7539062,478.6963806,3065.1064453,464.0826111,3065.1064453,446.5987244z"/>
	<path class="st0" d="M3226.3725586,385.5352478h34.1855469v121.8662109h-34.1855469V489.917572
		c-8.0893555,12.5258789-23.746582,20.6152344-40.1870117,20.6152344c-33.6630859,0-58.7148438-26.0952148-58.7148438-63.934082
		c0-37.8383789,24.5297852-64.1953125,59.4975586-64.1953125c15.6577148,0,31.3149414,6.7851562,39.4042969,19.3110352V385.5352478z
		 M3225.3291016,446.5987244c0-18.527832-14.8745117-32.3583984-31.8369141-32.3583984
		c-17.7446289,0-31.0537109,14.6132812-31.0537109,32.3583984c0,16.9619141,13.309082,32.0976562,31.3149414,32.0976562
		C3210.9765625,478.6963806,3225.3291016,464.0826111,3225.3291016,446.5987244z"/>
	<path class="st0" d="M3413.9960938,440.5967712v66.8046875h-34.1850586v-64.9780273
		c0-19.0498047-11.4819336-27.6611328-23.2250977-27.6611328c-12.2646484,0-27.4003906,6.5239258-27.4003906,28.7050781v63.934082
		h-34.1850586V385.5352478h34.1850586v20.6152344c5.2192383-16.4399414,24.5297852-23.7470703,36.5336914-23.7470703
		C3397.5561523,382.4034119,3414.2573242,404.0630798,3413.9960938,440.5967712z"/>
	<path class="st0" d="M3538.4648438,319.252533h34.1855469v188.1489258h-34.1855469v-15.1352539
		c-8.6113281,12.5258789-25.5732422,18.2666016-39.1430664,18.2666016c-31.3149414,0-59.7587891-25.0517578-59.7587891-64.1948242
		c0-39.1435547,28.4438477-63.9345703,59.7587891-63.9345703c14.0913086,0,30.5317383,5.4804688,39.1430664,18.0063477V319.252533z
		 M3537.4213867,446.3379822c0-18.7890625-15.6577148-32.0976562-31.5756836-32.0976562
		c-17.2231445,0-31.5756836,14.0913086-31.5756836,32.0976562c0,17.7446289,14.3525391,32.3583984,31.5756836,32.3583984
		C3522.546875,478.6963806,3537.4213867,464.8658142,3537.4213867,446.3379822z"/>
	<path class="st0" d="M3727.1323242,457.5586853h-91.5952148c3.6533203,14.3525391,15.1352539,22.703125,31.3144531,22.703125
		c12.5258789,0,24.5297852-5.7407227,32.0976562-14.3525391l19.8325195,20.09375
		c-11.4819336,15.3964844-32.6196289,24.5297852-54.0175781,24.5297852c-37.5776367,0-64.9780273-26.3564453-64.9780273-63.934082
		c0-39.4042969,30.0097656-64.1953125,64.7167969-64.1953125c34.9682617,0,63.4121094,24.7910156,63.4121094,62.1079102
		C3727.9150391,447.9034119,3727.6542969,452.0787048,3727.1323242,457.5586853z M3693.4692383,435.377533
		c-1.0439453-14.3525391-12.7871094-23.4858398-28.1835938-23.4858398c-14.0913086,0-26.0952148,7.0458984-29.7485352,23.4858398
		H3693.4692383z"/>
	<path class="st0" d="M3843.2529297,386.3179626l-7.8286133,32.6196289
		c-7.3066406-3.9145508-13.3085938-4.4365234-17.4838867-4.4365234c-17.484375,0-29.4882812,16.4404297-29.4882812,51.1474609
		v41.7529297h-34.1850586V385.5352478h33.9243164v26.0952148c6.784668-20.3544922,20.6152344-29.2270508,35.7509766-29.2270508
		C3830.4663086,382.4034119,3837.7729492,383.4473572,3843.2529297,386.3179626z"/>
	<path class="st0" d="M3977.9047852,457.5586853h-91.5952148c3.6533203,14.3525391,15.1352539,22.703125,31.3144531,22.703125
		c12.5258789,0,24.5297852-5.7407227,32.0976562-14.3525391l19.8325195,20.09375
		c-11.4819336,15.3964844-32.6196289,24.5297852-54.0175781,24.5297852c-37.5776367,0-64.9780273-26.3564453-64.9780273-63.934082
		c0-39.4042969,30.0097656-64.1953125,64.7167969-64.1953125c34.9682617,0,63.4121094,24.7910156,63.4121094,62.1079102
		C3978.6875,447.9034119,3978.4267578,452.0787048,3977.9047852,457.5586853z M3944.2416992,435.377533
		c-1.0439453-14.3525391-12.7871094-23.4858398-28.1835938-23.4858398c-14.0913086,0-26.0952148,7.0458984-29.7485352,23.4858398
		H3944.2416992z"/>
	<path class="st0" d="M4124.0351562,440.5967712v66.8046875h-34.1850586v-64.9780273
		c0-19.0498047-11.4819336-27.6611328-23.2250977-27.6611328c-12.2646484,0-27.4003906,6.5239258-27.4003906,28.7050781v63.934082
		h-34.1850586V385.5352478h34.1850586v20.6152344c5.2192383-16.4399414,24.5297852-23.7470703,36.5336914-23.7470703
		C4107.5952148,382.4034119,4124.2963867,404.0630798,4124.0351562,440.5967712z"/>
</g>
<path class="st3" d="M1888.9812012,0.0436438c4.8907471-0.0436438,9.737915,1.1353635,14.1046143,3.3187613
	c4.3666992,2.2270834,8.1658936,5.4584742,11.0478516,9.4322672c2.8822021,3.9301071,4.7598877,8.5588913,5.5023193,13.4059772
	c0.7423096,4.803484,0.3493652,9.7816238-1.1790771,14.410408l-156.5927734,476.1971741
	c-7.0740967,21.5282593-20.7857666,40.2617188-39.1263428,53.5803833
	c-18.340332,13.2750244-40.4362793,20.4365845-63.0999756,20.4365845h-129.8242188
	c-33.9736328,0-67.0737305-11.0916748-94.1914062-31.5718384c-27.161377-20.4802246-46.8554688-49.2135925-56.2004395-81.9207458
	L1327.9375,255.2818604c-0.6987305-2.9693909-2.3581543-5.6331329-4.7598877-7.5545197
	c-2.4017334-1.8777008-5.3710938-2.9257355-8.4278564-2.9257355s-6.026123,1.0480347-8.3842773,2.9257355
	c-2.4017334,1.9213867-4.0610352,4.5851288-4.7596436,7.5545197l-51.5280762,222.0507507
	c-9.3011475,32.6635132-29.0390625,61.3968811-56.1567383,81.8771057
	c-27.0740967,20.4364624-60.1306152,31.5281372-94.104126,31.5281372H969.7305298
	c-22.6635132,0-44.7158203-7.1178589-63.0562744-20.4365234c-18.3840942-13.2750244-32.052124-32.0084839-39.1263428-53.5367432
	L720.2565308,68.0344009l-232.5746765,190.522583c-3.013092,2.4890442-5.5021362,5.589447-7.2052307,9.1265564
	c-1.746582,3.4934082-2.707428,7.3361816-2.7947083,11.2662964c-0.1309204,3.9301147,0.6113586,7.8165283,2.1397095,11.3972778
	c1.5283813,3.6244202,3.7991943,6.855835,6.6811829,9.5195923l265.3255005,243.3605957
	c4.0610962,3.711731,6.855835,8.6025391,8.1222534,13.9300537c1.2226562,5.3710938,0.8296509,11.0042725-1.135437,16.1133423
	c-2.008667,5.1091919-5.5021362,9.5195923-10.0435791,12.6200562c-4.5414429,3.144043-9.9125366,4.8034058-15.4147339,4.8034058
	H510.9568176c-7.2052307,0-14.1047058-2.7947388-19.2138367-7.8601685L342.4427795,435.0185242
	c-8.7336121-8.6899109-20.3928223-13.7990417-32.7072144-14.3667297
	c-12.2705688-0.5676575-24.3665771,3.4934082-33.8424377,11.3099365l-48.9080353,40.3490295
	c-2.3579407,1.9214172-4.2794342,4.3668213-5.5894165,7.1615601c-1.3099823,2.7510376-2.0087738,5.7641296-1.9651337,8.864563
	v65.4579773c-0.0436401,9.8252563-3.9300995,19.2138672-10.8731384,26.1570435
	c-6.9431915,6.9431763-16.3317719,10.8295898-26.1571198,10.8295898H36.9866219
	c-9.8253517,0-19.213932-3.8864136-26.1569633-10.8295898C3.8864639,573.008728,0,563.6201172,0,553.7948608V37.0302658
	c0-9.7815819,3.8864639-19.2138081,10.8296595-26.1570034C17.7726898,3.9737515,27.1612701,0.0436438,36.9866219,0.0436438
	h145.4136658c9.8253479,0,19.2139282,3.8864641,26.1571198,10.8296185
	c6.9430389,6.9431953,10.8731384,16.3754215,10.8731384,26.1570034v149.3001709
	c0.043808,3.9300995,1.1790466,7.7728882,3.3187561,11.0916443c2.1397247,3.3187561,5.1966248,5.9388123,8.7772369,7.5981903
	c3.5807953,1.6593781,7.5545502,2.2707214,11.4846497,1.7467041c3.9301147-0.4803314,7.5981903-2.0960693,10.6549225-4.6287842
	L483.4897156,6.5501518c4.9344177-4.1920958,11.2226257-6.5065079,17.6854858-6.5065079h225.6750793h13.711731h162.487915
	c8.7334595,0,17.2487183,2.8384297,24.2355347,8.0785589s12.0960083,12.5763292,14.5413818,20.9605598l96.0255737,349.0802917
	c1.0916748,3.9300537,3.449585,7.4235229,6.7247314,9.9125671c3.2314453,2.4454041,7.2489014,3.7990723,11.3100586,3.7990723
	c4.1047363,0,8.0784912-1.3536682,11.3535156-3.7990723c3.2751465-2.4890442,5.6331787-5.9825134,6.7248535-9.9125671
	l71.5279541-253.1421814c11.1352539-36.2006226,33.5804443-67.9034271,64.0605469-90.3923187
	C1239.9904785,12.1396399,1276.8897705,0,1314.7497559,0c37.9036865,0,74.7592773,12.1396399,105.2393799,34.6285667
	c30.4364014,22.488884,52.925415,54.1916924,64.0605469,90.3923187l71.4842529,253.1421814
	c1.0917969,3.9300537,3.449707,7.4235229,6.7247314,9.9125671c3.2315674,2.4890442,7.2489014,3.8427734,11.3537598,3.8427734
	c4.1047363,0,8.0784912-1.3537292,11.3535156-3.8427734c3.2751465-2.4890442,5.6333008-5.9825134,6.7248535-9.9125671
	l95.9819336-349.0802917c2.4890137-8.3842316,7.5544434-15.7204304,14.5849609-20.9605598
	c6.9868164-5.2401295,15.458374-8.0785589,24.1920166-8.0785589H1888.9812012"/>
</svg>
