<svg xmlns="http://www.w3.org/2000/svg" width="357.986" height="78.793" viewBox="0 0 357.986 78.793">
  <g id="marker-wordmark" transform="translate(-32.46 -20.688)">
    <g id="Group_10" data-name="Group 10" transform="translate(32.46 20.688)">
      <g id="Group_9" data-name="Group 9">
        <g id="Group_7" data-name="Group 7" transform="translate(345.556 23.864)">
          <path id="Path_14" data-name="Path 14" d="M302.151,45.588a6.215,6.215,0,1,1,6.215,6.215A6.215,6.215,0,0,1,302.151,45.588Zm10.681-.029a4.452,4.452,0,1,0-2.186,3.967,4.452,4.452,0,0,0,2.186-3.967Zm-4.8.815h-.452v2.291h-1.69V42.329h3.048a2.072,2.072,0,0,1,2.172,2.082,1.9,1.9,0,0,1-1.388,1.841l1.538,2.411h-1.81Zm1.388-1.962c0-.392-.332-.664-.844-.664h-1v1.327h1c.515,0,.846-.275.846-.664Z" transform="translate(-302.151 -39.313)" fill="#0b24fb"/>
        </g>
        <g id="Group_8" data-name="Group 8">
          <path id="Path_15" data-name="Path 15" d="M106.316,92.958h-14.4V58.4A7.541,7.541,0,0,0,84.2,50.577,7.459,7.459,0,0,0,76.588,58.4V92.958h-14.4V58.4a7.541,7.541,0,0,0-7.715-7.819A7.459,7.459,0,0,0,46.861,58.4V92.958H32.46V58.6c0-12.138,9.669-20.573,21.91-20.573,6.583,0,11.829,2.469,15.223,6.79,3.6-4.321,8.949-6.79,15.429-6.79,12.343,0,21.293,8.435,21.293,20.573Z" transform="translate(-32.46 -15.81)" fill="#0b24fb"/>
          <path id="Path_16" data-name="Path 16" d="M124.51,38.028c8.126,0,14.4,3.5,17.177,8.435h.413a34.655,34.655,0,0,1-.206-4.732V39.674H155.06V92.958H141.893v-2.47c0-2.365.1-3.805.206-4.937h-.413c-3.085,5.554-9.669,9.052-17.795,9.052C108.669,94.6,97.97,82.98,97.97,66.315S109.285,38.028,124.51,38.028ZM141.378,66.11c0-9.155-6.068-15.533-14.5-15.533-8.332,0-14.4,6.378-14.4,15.533,0,9.257,6.07,15.738,14.4,15.738C135.31,81.849,141.378,75.368,141.378,66.11Z" transform="translate(-14.032 -15.81)" fill="#0b24fb"/>
          <path id="Path_17" data-name="Path 17" d="M182.484,39.313V51.965H167.847V92.6h-14.4V39.313Z" transform="translate(1.574 -15.449)" fill="#0b24fb"/>
          <path id="Path_18" data-name="Path 18" d="M203.725,77.16h-6.07V97.835h-14.4V20.688h14.4V65.125h6.171l9.979-20.573h15.636L216.377,70.886l15.635,26.95H215.657Z" transform="translate(9.959 -20.688)" fill="#0b24fb"/>
          <path id="Path_19" data-name="Path 19" d="M251.592,94.6c-16.87,0-28.6-11.933-28.6-28.289,0-16.561,11.829-28.287,28.39-28.287,15.636,0,26.128,11.829,26.128,28.287a21.885,21.885,0,0,1-.411,4.527H237.912c1.543,7,6.377,11.006,13.783,11.006,5.966,0,9.875-1.851,13.372-6.275l8.332,8.744C267.947,91.415,260.643,94.6,251.592,94.6Zm-13.68-32.913h25.509c-1.029-6.687-5.657-11.11-12.344-11.11C244.082,50.577,239.351,54.8,237.912,61.687Z" transform="translate(21.139 -15.81)" fill="#0b24fb"/>
          <path id="Path_20" data-name="Path 20" d="M301.7,39.313V51.965H287.894V92.6h-14.4V39.313Z" transform="translate(35.344 -15.449)" fill="#0b24fb"/>
        </g>
      </g>
    </g>
  </g>
</svg>
