<?xml version="1.0" encoding="utf-8"?>
<!-- Generator: Adobe Illustrator 28.1.0, SVG Export Plug-In . SVG Version: 6.00 Build 0)  -->
<svg version="1.1" id="Laag_1" xmlns="http://www.w3.org/2000/svg" xmlns:xlink="http://www.w3.org/1999/xlink" x="0px" y="0px"
	 viewBox="0 0 283.5 197.7" style="enable-background:new 0 0 283.5 197.7;" xml:space="preserve">
<style type="text/css">
	.st0{fill:#AFDCEA;}
	.st1{fill:#67C2C7;}
	.st2{fill:#003265;}
</style>
<path class="st0" d="M150.3,75.7L150.3,75.7L150.3,75.7z"/>
<g>
	<path class="st1" d="M78.6,0C35.3,0,0,35.2,0,78.6h30.8c0-26.3,21.4-47.8,47.8-47.8s47.8,21.4,47.8,47.8c0-17.5,5.7-33.6,15.4-46.7
		C127.4,12.6,104.5,0,78.6,0"/>
	<path class="st2" d="M204.9,0c43.3,0,78.6,35.2,78.6,78.6h-30.8c0-26.3-21.4-47.8-47.8-47.8s-47.8,21.4-47.8,47.8
		c0-17.5-5.7-33.6-15.4-46.7C156.1,12.6,179,0,204.9,0"/>
	<path class="st2" d="M16.9,113.8h0.2c4-5.3,8.9-7.5,15-7.5c6.8,0,12.8,2.8,16.2,9.1c3.2-5.9,9.6-9.1,16.1-9.1
		c12,0,16.2,7.9,16.2,18.8v30.2H63.6v-22.7c0-4.9,0.2-12.9-6.9-12.9c-7.8,0-8,7.3-8,12.9v22.7H31.8v-22.7c0-5.3,0-13.3-7.5-13.3
		s-7.5,8-7.5,13.3v22.7H0v-47.4h16.8L16.9,113.8L16.9,113.8z"/>
	<path class="st2" d="M143.3,155.3h-16.8V150h-0.2c-3,4.7-8.8,6.8-14.3,6.8c-14.1,0-23.9-11.7-23.9-25.3s9.7-25.2,23.8-25.2
		c5.5,0,11.2,2,14.7,6.2v-4.6h16.8L143.3,155.3L143.3,155.3z M105.4,131.6c0,6,4,10.6,10.8,10.6c6.8,0,10.8-4.6,10.8-10.6
		c0-5.8-4-10.7-10.8-10.7C109.4,120.9,105.4,125.8,105.4,131.6"/>
	<path class="st2" d="M185.8,120.1c-2.6-1.4-6.2-2.3-9.1-2.3c-1.9,0-5.3,0.8-5.3,3.2c0,3.2,5.3,3.7,7.6,4.2
		c7.9,1.6,13.8,5.3,13.8,14.1c0,12.5-11.4,17.7-22.4,17.7c-6.7,0-13.4-1.9-19.1-5.5l6.1-11.7c3.4,2.4,9.2,4.8,13.3,4.8
		c2.1,0,5.3-1,5.3-3.6c0-3.7-5.3-3.9-10.5-5.3c-5.3-1.4-10.5-4-10.5-12.5c0-11.7,10.5-16.8,20.9-16.8c5.4,0,10.7,0.8,15.6,3.1
		L185.8,120.1z"/>
	<rect x="201.9" y="78.6" class="st2" width="16.8" height="76.7"/>
	<path class="st2" d="M283.5,131.6c0,16.1-13.3,25.2-28.6,25.2c-15.2,0-28.6-9.1-28.6-25.2s13.3-25.3,28.6-25.3
		C270.1,106.3,283.5,115.4,283.5,131.6 M244.1,131.6c0,6,4,10.6,10.8,10.6c6.8,0,10.8-4.6,10.8-10.6c0-5.8-4-10.7-10.8-10.7
		C248.1,120.9,244.1,125.8,244.1,131.6"/>
	<path class="st1" d="M4.7,185.8L4.7,185.8c1.2-1.4,2.5-2.1,4.2-2.1c1.9,0,3.5,0.8,4.4,2.5c0.9-1.6,2.6-2.5,4.4-2.5
		c3.3,0,4.4,2.2,4.4,5.2v8.3h-4.6V191c0-1.3,0.1-3.6-1.9-3.6c-2.1,0-2.2,2-2.2,3.6v6.2H8.8V191c0-1.4,0-3.7-2.1-3.7
		s-2.1,2.2-2.1,3.7v6.2H0v-13h4.6L4.7,185.8L4.7,185.8z"/>
	<path class="st1" d="M38.6,191.5h-9.7c0,1.9,1,2.9,2.9,2.9c1,0,1.7-0.3,2.2-1.2h4.4c-0.4,1.5-1.3,2.6-2.5,3.4
		c-1.2,0.7-2.7,1.1-4.2,1.1c-4.3,0-7.5-2.4-7.5-6.9c0-4.3,3-7,7.2-7c4.5,0,7.1,2.8,7.1,7.2V191.5z M30.9,182.3l-2.1-1.5l3.6-4.4
		l2.8,2L30.9,182.3z M34.3,188.8c-0.2-1.2-1.4-2.1-2.6-2.1c-1.3,0-2.5,0.7-2.7,2.1H34.3z"/>
	<path class="st1" d="M54.1,191.5h-9.7c0,1.9,1,2.9,2.9,2.9c1,0,1.7-0.3,2.2-1.2h4.4c-0.4,1.5-1.3,2.6-2.5,3.4s-2.7,1.1-4.2,1.1
		c-4.3,0-7.5-2.4-7.5-6.9c0-4.3,3-7,7.2-7c4.5,0,7.1,2.8,7.1,7.2V191.5z M46.4,182.3l-2.1-1.5l3.6-4.4l2.8,2L46.4,182.3z
		 M49.8,188.8c-0.2-1.2-1.4-2.1-2.6-2.1c-1.3,0-2.5,0.7-2.7,2.1H49.8z"/>
	<path class="st1" d="M60.8,186.3L60.8,186.3c1-1.6,2.5-2.3,4.3-2.3H66v4.4c-0.6-0.4-1.2-0.4-2-0.4c-2.6,0-3.2,1.7-3.2,3.9v5.3h-4.6
		v-13h4.6V186.3z"/>
	<path class="st2" d="M86.2,195.8L86.2,195.8c-0.9,1.3-2.5,1.9-4,1.9c-3.9,0-6.6-3.2-6.6-7c0-3.7,2.7-6.9,6.5-6.9
		c1.5,0,3.1,0.6,4,1.7v-9.3h4.6v21.1h-4.6V195.8z M80.4,190.7c0,1.6,1.1,2.9,3,2.9c1.9,0,3-1.3,3-2.9c0-1.6-1.1-2.9-3-2.9
		C81.5,187.8,80.4,189.1,80.4,190.7"/>
	<path class="st2" d="M108,197.2h-4.6v-1.4h-0.1c-0.8,1.3-2.4,1.9-3.9,1.9c-3.9,0-6.6-3.2-6.6-7c0-3.7,2.7-6.9,6.5-6.9
		c1.5,0,3.1,0.6,4,1.7v-1.3h4.6V197.2z M97.6,190.7c0,1.6,1.1,2.9,3,2.9c1.9,0,3-1.3,3-2.9c0-1.6-1.1-2.9-3-2.9
		C98.7,187.8,97.6,189.1,97.6,190.7"/>
	<path class="st2" d="M115.7,185.9L115.7,185.9c1.1-1.6,2.4-2.1,4.2-2.1c3.5,0,4.9,2.2,4.9,5.4v8.1h-4.6v-6.4c0-1.2,0.2-3.4-2.1-3.4
		c-1.9,0-2.4,1.4-2.4,3v6.8h-4.6v-13h4.6L115.7,185.9L115.7,185.9z"/>
	<polygon class="st2" points="143,190.9 146.1,184.2 151.3,184.2 144.5,197.2 141.5,197.2 134.7,184.2 139.9,184.2 	"/>
	<path class="st2" d="M165.8,191.5h-9.7c0,1.9,1,2.9,2.9,2.9c1,0,1.7-0.3,2.2-1.2h4.4c-0.4,1.5-1.3,2.6-2.5,3.4s-2.7,1.1-4.2,1.1
		c-4.3,0-7.5-2.4-7.5-6.9c0-4.3,3-7,7.2-7c4.5,0,7.1,2.8,7.1,7.2L165.8,191.5L165.8,191.5z M161.5,188.8c-0.2-1.2-1.4-2.1-2.6-2.1
		c-1.3,0-2.5,0.7-2.7,2.1H161.5z"/>
	<path class="st2" d="M172.6,186.3L172.6,186.3c1-1.6,2.5-2.3,4.3-2.3h0.9v4.4c-0.6-0.4-1.2-0.4-2-0.4c-2.6,0-3.2,1.7-3.2,3.9v5.3
		H168v-13h4.6L172.6,186.3L172.6,186.3z"/>
	<polygon class="st2" points="191.9,193.4 191.9,197.2 178.6,197.2 184.8,188 179.5,188 179.5,184.2 192.5,184.2 186.4,193.4 	"/>
	<path class="st2" d="M207.6,191.5h-9.7c0,1.9,1,2.9,2.9,2.9c1,0,1.7-0.3,2.2-1.2h4.4c-0.4,1.5-1.3,2.6-2.5,3.4s-2.7,1.1-4.2,1.1
		c-4.3,0-7.5-2.4-7.5-6.9c0-4.3,3-7,7.2-7c4.5,0,7.1,2.8,7.1,7.2V191.5z M203.3,188.8c-0.2-1.2-1.4-2.1-2.6-2.1
		c-1.3,0-2.5,0.7-2.7,2.1H203.3z"/>
	<polygon class="st2" points="214.3,188.9 219.1,184.2 225.4,184.2 218.9,190.2 225.9,197.2 219.4,197.2 214.3,191.9 214.3,197.2 
		209.7,197.2 209.7,176.1 214.3,176.1 	"/>
	<path class="st2" d="M240.6,191.5h-9.7c0,1.9,1,2.9,2.9,2.9c1,0,1.7-0.3,2.2-1.2h4.4c-0.4,1.5-1.3,2.6-2.5,3.4s-2.7,1.1-4.2,1.1
		c-4.3,0-7.5-2.4-7.5-6.9c0-4.3,3-7,7.2-7c4.5,0,7.1,2.8,7.1,7.2L240.6,191.5L240.6,191.5z M236.3,188.8c-0.2-1.2-1.4-2.1-2.6-2.1
		c-1.3,0-2.5,0.7-2.7,2.1H236.3z"/>
	<path class="st2" d="M247.3,186.3L247.3,186.3c0.9-1.6,2.4-2.3,4.3-2.3h0.9v4.4c-0.6-0.4-1.2-0.4-2-0.4c-2.6,0-3.2,1.7-3.2,3.9v5.3
		h-4.6v-13h4.6V186.3z"/>
	<path class="st2" d="M267.6,191.5h-9.7c0,1.9,1,2.9,2.9,2.9c1,0,1.7-0.3,2.2-1.2h4.4c-0.4,1.5-1.3,2.6-2.5,3.4s-2.7,1.1-4.2,1.1
		c-4.3,0-7.5-2.4-7.5-6.9c0-4.3,3-7,7.2-7c4.5,0,7.1,2.8,7.1,7.2V191.5z M263.3,188.8c-0.2-1.2-1.4-2.1-2.6-2.1
		c-1.3,0-2.5,0.7-2.7,2.1H263.3z"/>
	<path class="st2" d="M274.3,185.9L274.3,185.9c1.1-1.6,2.4-2.1,4.2-2.1c3.5,0,4.9,2.2,4.9,5.4v8.1h-4.6v-6.4c0-1.2,0.2-3.4-2.1-3.4
		c-1.9,0-2.4,1.4-2.4,3v6.8h-4.6v-13h4.6L274.3,185.9L274.3,185.9z"/>
</g>
</svg>
