<?xml version="1.0" encoding="utf-8"?>
<!-- Generator: Adobe Illustrator 25.4.1, SVG Export Plug-In . SVG Version: 6.00 Build 0)  -->
<svg version="1.1" id="Layer_1" xmlns="http://www.w3.org/2000/svg" xmlns:xlink="http://www.w3.org/1999/xlink" x="0px" y="0px"
	 viewBox="0 0 302 90" style="enable-background:new 0 0 302 90;" xml:space="preserve">
<style type="text/css">
	.st0{fill:#003863;}
	.st1{display:none;}
	.st2{display:inline;}
	.st3{fill:#153960;}
	.st4{fill:#A79F96;}
</style>
<g>
	<g>
		<path class="st0" d="M13.9,19.8c0-8,8.9-9.2,13-9.2s6.2,0.9,6.2,0.9v7h9.2V3c0,0-4.8-1.6-14.7-1.6C5.5,1.5,2.2,14.6,2.2,20.4
			c0,26.1,32.5,11.6,32.5,30c0,2.2-0.3,12-14.5,12c-8.1,0-9.8-2.5-9.8-2.5v-9.7H1v17.5c0,0,5.5,3.7,19.2,3.7
			c25,0,25.7-18.3,25.7-21.4C45.9,22.6,13.9,35,13.9,19.8 M172,49c0,5.4-1.8,12.6-9.3,12.6c-4.8,0-6.3-2.6-6.3-2.6V37.1
			c0.9-0.1,1.8-0.1,2.7-0.1C165.3,37,172,38.7,172,49 M116.8,46.5c0-5.1,3.2-11,9.1-11c1.1,0,5.2,0.2,5.2,4.5
			c0,0.9-0.2,7.1-10.1,7.1C117.8,47.2,116.8,46.7,116.8,46.5 M79.6,46.5c0-5.3,3.1-11,9.1-11c1.3,0,5.2,0.3,5.2,4.5
			c0,0.9-0.2,7.1-10.1,7.1C80.6,47.2,79.6,46.7,79.6,46.5 M182.1,48.6c0-17.6-13.9-19.7-21.8-19.7h-17.1v8.2h3.7v18.4
			c-4,4.9-10.1,7.1-16.1,7.1c-12.1,0-13.1-7.7-13.1-8c0-0.1,0.1-0.2,0.2-0.2c0.6,0.2,3.8,0.5,4.1,0.5c18.4,0,18.8-13.3,18.8-14.7
			c0-12.8-12.2-12.9-13.6-12.9c-17.6,0-20.4,16-20.4,21.5c0,1.7,0.1,4.2,0.7,7c-3.6,5.1-9,6.8-13.8,6.8c-13.1,0-13.3-7.7-13.3-8.1
			c0,0,0.1-0.1,0.2-0.1c0.6,0.2,3.1,0.4,4.2,0.4c18.4,0,18.8-13.2,18.8-14.5v-0.1c0-12.8-12.2-12.9-13.4-12.9H90
			c-12.4,0-20.5,9.1-20.5,22c0,1.3,0,3.1,0.3,5.1c-1.1,4.5-3.4,5.5-5.1,5.5c-3.6,0-3.6-3.5-3.6-4.4c0-0.8,0-14.5-0.1-52H47.9v8.2
			h3.7v46.8c0,5.7,3,11.2,9.8,11.2c6.5,0,10.1-4,11.6-6.9c3,4.3,8.5,7.8,18.7,7.8c9.6,0,15.9-4.1,19-7.6c3.2,4.2,8.9,7.6,19.3,7.6
			c7.6,0,13.1-2.1,16.8-4.7v22.3h9.6V68.1c0,0,2.5,1.6,6.7,1.6C181.7,69.8,182.1,52.5,182.1,48.6"/>
	</g>
	<g>
		<path class="st0" d="M296.3,31.9c0,0.4-0.3,0.8-0.8,0.8h-1.3v-1.5h1.2C296.1,31.2,296.3,31.4,296.3,31.9 M297,31.9
			c0-0.8-0.4-1.3-1.6-1.3h-1.9v4.5h0.7v-1.9h1.2l1,1.9h0.8l-1.1-1.9C296.7,33,297,32.5,297,31.9 M291.8,32.9c0-1.9,1.5-3.4,3.3-3.4
			c1.8,0,3.3,1.5,3.3,3.4c0,1.8-1.5,3.4-3.3,3.4C293.3,36.3,291.8,34.8,291.8,32.9 M291.3,32.9c0,2.1,1.7,3.9,3.8,3.9
			c2.1,0,3.8-1.8,3.8-3.9c0-2.2-1.7-3.9-3.8-3.9C293,29,291.3,30.8,291.3,32.9"/>
	</g>
	<g>
		<path class="st0" d="M265,46.5c0-5.1,3.2-11,9.1-11c1.1,0,5.2,0.2,5.2,4.5c0,0.9-0.2,7.1-10.1,7.1C266,47.2,265,46.7,265,46.5
			 M300.6,57.8c-1.1-1.5-3.6-5.2-3.6-5.2c-3.7,6.9-11,10-18.1,10c-12.1,0-13-7.7-13-8c0-0.1,0.1-0.2,0.2-0.2
			c0.6,0.2,3.8,0.5,4.1,0.5c18.4,0,18.8-13.3,18.8-14.7c0-12.8-12.2-12.9-13.6-12.9c-3.6,0-6.6,0.7-9.1,1.8l0-0.2h-19.8v-13
			c0-1.4,0.8-4.7,5.4-4.7h7.7l-2.6-8.1l-6.6,0c-10.7,0-13.1,6-13.1,11.4c0,0.3-0.1,4.7-0.1,14.4V29h0v22.1c0,3.7-2.5,9.3-7.7,9.3
			c-6.1,0-6.2-6.4-6.2-6.4V29h-13.6v8.2h4v20c0,0.9,0.3,12.9,12.7,12.9c5.5,0,9-2.9,10.7-4.7v6.8c0,0-0.1,6.4-6.2,6.4
			c-0.6,0-1.1-0.1-1.6-0.2l2.6,9.8c0.6,0.1,1.3,0.2,2.1,0.2c12.4,0,12.7-12,12.7-12.9V70V54.9V43.5V37c0.3-0.1,3.1-0.1,6.1-0.1h5.1
			c-2.4,4.5-3,9.3-3,11.8c0,5.7,0.6,21.9,23.2,21.9c15.8,0,22.7-9.3,22.7-12.1C301,58.4,300.9,58.2,300.6,57.8"/>
	</g>
	<g>
		<path class="st0" d="M218.2,26.1c3.2,0,5.9-2.7,5.9-6.1c0-3.3-2.7-6-5.9-6c-3.3,0-5.9,2.7-5.9,6C212.2,23.4,214.9,26.1,218.2,26.1
			"/>
	</g>
	<g>
		<path class="st0" d="M200.9,60.3c-3.7,0-4.4-3.5-4.4-5.5V3.7h-13.3v8.2h3.8v46.9c0,6,4.3,11.2,11.3,11.2c5.8,0,9.6-2.9,11.6-5.8
			v-9C207.7,59.1,202.9,60.3,200.9,60.3"/>
	</g>
</g>
<g class="st1">
	<g id="sleeplife_logo_00000049904880631546901110000008676981229578468996_" transform="translate(-44.3 -29.7)" class="st2">
		<g id="Group_8_00000080207767852573277250000008078412216816500633_" transform="translate(44.3 29.7)">
			<g id="Group_3_00000069384442456585272220000004435559063166957733_">
				<path id="Path_1_00000096773350399709500440000014443932664282088122_" class="st3" d="M55.1,14.4c0-5.7,6.3-6.6,9.2-6.6
					c1.5-0.1,2.9,0.2,4.3,0.7v5h6.6V2.6c-3.4-0.8-6.9-1.2-10.4-1c-15.7,0-17.9,9.4-17.9,13.4c0,18.4,23.1,8.2,23.1,21.3
					c0,1.6-0.3,8.6-10.3,8.6c-5.7,0-7-1.7-7-1.7v-6.9H46v12.4c0,0,4,2.6,13.7,2.6c17.8,0,18.2-13,18.2-15.1
					C77.8,16.4,55.1,25.2,55.1,14.4 M167.2,35.2c0,3.8-1.3,9-6.6,9c-3.4,0-4.5-1.8-4.5-1.8V26.8h1.8
					C162.5,26.7,167.2,27.9,167.2,35.2 M128.1,33.4c0-3.7,2.2-7.8,6.4-7.8c0.8,0,3.7,0.1,3.7,3.3c0,0.7-0.1,5-7.1,5
					C128.7,33.9,128.1,33.5,128.1,33.4 M101.7,33.4c0-3.7,2.2-7.8,6.4-7.8c0.9,0,3.7,0.1,3.7,3.3c0,0.7-0.1,5-7.1,5
					C102.4,33.9,101.7,33.5,101.7,33.4 M174.4,35c0-12.5-9.9-14-15.5-14h-12.1v5.8h2.6v13c-2.9,3.3-7.1,5.1-11.5,5
					c-8.6,0-9.2-5.4-9.2-5.7c0-0.1,0.1-0.1,0.1-0.1l0,0c1,0.1,1.9,0.2,2.9,0.3c13,0,13.3-9.5,13.3-10.4c0-9.1-8.7-9.2-9.6-9.2
					C123,19.7,121,31,121,35c-0.1,1.7,0.1,3.4,0.5,5c-2.3,3.1-5.9,4.9-9.8,4.9c-9.2,0-9.5-5.4-9.5-5.8h0.1c1,0.2,2,0.3,3,0.3
					c13,0,13.3-9.4,13.3-10.3l0,0c0-9.1-8.7-9.2-9.5-9.2l0,0c-8.8,0-14.5,6.5-14.5,15.7c0,1.2,0.1,2.5,0.3,3.7c-0.8,3.2-2.5,4-3.7,4
					c-2.5,0-2.5-2.5-2.5-3.2V3.1h-9.3v5.8h2.6v33.2c0,4.1,2.1,7.9,6.8,7.9c3.4,0,6.6-1.8,8.3-4.9c2.1,3,6.1,5.5,13.3,5.5
					c6.8,0,11.3-2.9,13.4-5.4c2.2,3,6.3,5.4,13.7,5.4c4.2,0.1,8.4-1,12-3.3v15.8h6.9V48.8c1.4,0.8,3.1,1.2,4.7,1.2
					C174.2,49.9,174.4,37.6,174.4,35"/>
			</g>
			<g id="Group_4_00000150788630894698294750000004436473447186405780_" transform="translate(187.637 17.767)">
				<path id="Path_2_00000056401835104784869270000000308932295659839164_" class="st4" d="M67.8,5.3c0,0.3-0.2,0.5-0.4,0.5
					c0,0-0.1,0-0.1,0h-0.9V4.8h0.9C67.7,4.8,67.8,4.9,67.8,5.3 M68.3,5.3c0-0.5-0.3-0.9-1.2-0.9h-1.3v3.2h0.5V6.3h0.9L68,7.6h0.5
					l-0.8-1.3C68.1,6,68.3,5.7,68.3,5.3 M64.5,6c0-1.3,1.1-2.4,2.4-2.4c1.3,0,2.4,1.1,2.4,2.4s-1.1,2.4-2.4,2.4l0,0
					C65.6,8.3,64.6,7.3,64.5,6 M64.3,6c0,1.5,1.1,2.7,2.6,2.8c0,0,0.1,0,0.1,0c1.5,0,2.8-1.2,2.8-2.8c0-1.5-1.2-2.8-2.8-2.8
					C65.5,3.2,64.3,4.5,64.3,6"/>
			</g>
			<g id="Group_5_00000041975288895582457480000009785873325992905869_" transform="translate(135.056 0.96)">
				<path id="Path_3_00000173161625957994314030000007434492313600263842_" class="st4" d="M98.1,32.4c0-3.6,2.2-7.8,6.4-7.8
					c0.8,0,3.7,0.1,3.7,3.3c0,0.7-0.1,5-7.1,5C98.9,33,98.1,32.6,98.1,32.4 M123.4,40.5c-0.8-1-2.5-3.7-2.5-3.7
					c-2.6,4.5-7.5,7.3-12.8,7.1c-8.6,0-9.2-5.4-9.2-5.7c0-0.1,0.1-0.1,0.1-0.1l0,0c1,0.1,1.9,0.2,2.9,0.3c13,0,13.3-9.5,13.3-10.4
					c0-9.1-8.7-9.2-9.6-9.2c-2.2,0-4.4,0.4-6.4,1.3v-0.1H85.1v-9.2c0-1.1,0.5-3.3,3.8-3.3h5.5l-1.8-5.8h-4.7c-7.6,0-9.3,4.2-9.3,8
					v10.3l0,0v15.7c0,2.6-1.7,6.6-5.4,6.6c-4.3,0-4.3-4.5-4.3-4.5V20h-9.6v5.8h2.9V40c0,0.7,0.1,9.2,9,9.2c2.9,0,5.7-1.2,7.6-3.3
					v4.9c0,0,0,4.5-4.3,4.5c-0.4,0-0.8,0-1.2-0.1l1.8,7c0.5,0,0.9,0.1,1.4,0.1c8.8,0,9-8.6,9-9.2V26h8c-1.4,2.6-2.1,5.5-2.1,8.4
					c0,4.1,0.4,15.5,16.5,15.5c11.2,0,16.1-6.6,16.1-8.6C123.7,40.9,123.7,40.7,123.4,40.5"/>
			</g>
			<g id="Group_6_00000098925417837363741190000018002376934790393009_" transform="translate(136.496 8.043)">
				<path id="Path_4_00000119077389151080053580000011326726340130198676_" class="st4" d="M63.5,10.8c2.4-0.1,4.2-2,4.2-4.3
					c0-2.3-1.8-4.2-4.1-4.2c0,0-0.1,0-0.1,0c-2.4,0-4.3,1.9-4.3,4.3C59.2,8.9,61.2,10.8,63.5,10.8"/>
			</g>
			<g id="Group_7_00000140705255722640220370000007420372389508286087_" transform="translate(117.649 1.321)">
				<path id="Path_5_00000083066299604898395900000015522896291613553285_" class="st4" d="M70.1,41.8c-2.6,0-3.2-2.5-3.2-3.8V1.6
					h-9.5v5.8h2.6v33.3c-0.1,4.3,3.3,7.8,7.5,7.9c0.2,0,0.3,0,0.5,0c3.3,0,6.3-1.5,8.3-4.1v-6.3C75,40.4,72.7,41.7,70.1,41.8"/>
			</g>
		</g>
	</g>
</g>
</svg>
