<svg xmlns="http://www.w3.org/2000/svg" xmlns:xlink="http://www.w3.org/1999/xlink" width="195" height="40" viewBox="0 0 195 40">
  <defs>
    <path id="a" d="M0 0h195v40H0z"/>
  </defs>
  <g fill="none" fill-rule="evenodd">
    <mask id="b" fill="#fff">
      <use xlink:href="#a"/>
    </mask>
    <path fill="white" d="M29.822836 16.159269 19.548225 5.801299c-.99083-.999559-2.598542-.995153-3.58446.009363L5.79397 16.172486c-.976091.993501-.976091 2.59555 0 3.589602l10.168158 10.356317c.986463 1.003965 2.593628 1.008371 3.584459.009362l10.276249-10.35962c.988647-.996806.988647-2.612623 0-3.608878ZM18.700423.27536l10.757744 4.490582c.620156.258289 1.112568.75504 1.369693 1.380108l4.458464 10.844807c.257124.62562.257124 1.32779.000546 1.953409l-4.451367 10.84701c-.256579.625068-.748446 1.12237-1.368056 1.381209L18.71298 35.667474c-.619064.25939-1.315648.25939-1.934712.000551L6.020523 31.177442c-.61961-.258288-1.112023-.755039-1.369147-1.380107L.192912 18.952528c-.257125-.625069-.257125-1.32779-.000546-1.95341L4.643733 6.15211c.256033-.625069.748445-1.12182 1.368056-1.380658L16.766257.27591c.619064-.25939 1.315102-.25939 1.934166-.00055Zm96.03467 4.480119h4.771271V0h-4.771271v4.75548Zm61.232774 3.600066h15.067719c1.873571 0 3.391752 1.532107 3.391752 3.422183l-12.600197 15.111796H195v4.22128h-16.168824c-1.873024 0-3.391752-1.532107-3.391752-3.421081v-.000551l12.600197-15.111246h-12.071754V8.355546ZM166.9494 25.22249c1.218475-1.407093 1.828259-3.23714 1.828259-5.48904 0-2.222161-.609784-4.036788-1.828259-5.444432-1.218476-1.406543-2.812539-2.110916-4.780007-2.110916-1.968013 0-3.553887.696112-4.758169 2.088887-1.204282 1.393325-1.806423 3.199691-1.806423 5.421852 0 2.2519.602141 4.089107 1.806423 5.51162 1.204282 1.421963 2.790156 2.132945 4.758169 2.132945 1.967468 0 3.561531-.703271 4.780007-2.110916Zm1.520365-15.73356c1.614262.933472 2.877502 2.27448 3.78863 4.022469.910035 1.74854 1.365872 3.822007 1.365872 6.22205 0 2.28164-.455837 4.303889-1.365872 6.066748-.911128 1.76286-2.174368 3.133055-3.78863 4.110585-1.615354.978081-3.451802 1.466571-5.507161 1.466571-1.674313 0-3.128077-.317766-4.361838-.955501-1.233761-.636084-2.232234-1.50292-2.995965-2.599956l-.572662 3.288908h-4.141289V0h4.758169v11.73312c1.791138-2.428681 4.229727-3.644123 7.313585-3.644123 2.055359 0 3.891807.46646 5.507161 1.399933Zm-28.469861 15.688952c1.219021-1.407093 1.828805-3.222271 1.828805-5.444432s-.609784-4.036788-1.828805-5.444432c-1.218476-1.406543-2.826733-2.110916-4.823679-2.110916-1.997493 0-3.598107.704373-4.801843 2.110916-1.204828 1.407644-1.806423 3.22227-1.806423 5.444432 0 2.22216.601595 4.037339 1.806423 5.444432 1.203736 1.407644 2.80435 2.111466 4.801843 2.111466 1.996946 0 3.605203-.703822 4.823679-2.111466Zm-10.837447 4.75548c-1.74801-.962661-3.099143-2.325697-4.052851-4.088556-.955346-1.76286-1.431928-3.799978-1.431928-6.111356 0-2.281088.476582-4.303888 1.431928-6.066748.953708-1.762308 2.304841-3.133605 4.052851-4.111135 1.747465-.97753 3.751508-1.466571 6.013768-1.466571 2.261167 0 4.265757.48904 6.013221 1.46657 1.748011.977531 3.098597 2.348828 4.053397 4.111136.954255 1.76286 1.431928 3.78566 1.431928 6.066748 0 2.311378-.477673 4.348496-1.431928 6.111356-.9548 1.762859-2.305386 3.125895-4.053397 4.088556-1.747464.963211-3.752054 1.443991-6.013221 1.443991-2.26226 0-4.266303-.48078-6.013768-1.443991Zm-16.793893 5.844256c.822143 0 1.424284-.199912 1.806969-.599736.381046-.400374.572662-1.02985.572662-1.888975V8.355546h4.758169v25.288578c0 4.23725-2.056996 6.355876-6.16826 6.355876h-3.524409v-4.222381h2.554869Zm-5.286067-6.644455c-1.821708 1.496861-4.156574 2.24419-7.005144 2.24419-2.232234 0-4.200247-.48078-5.903493-1.443991-1.703792-.962661-3.017802-2.332856-3.943123-4.110585-.92532-1.777729-1.387163-3.822558-1.387163-6.133936 0-2.310827.468939-4.339685 1.409-6.088776.94006-1.74799 2.26881-3.103866 3.987341-4.066527 1.717986-.962661 3.707835-1.444542 5.969549-1.444542 2.819636 0 5.125023.74898 6.917252 2.24419 1.790592 1.49686 2.907528 3.533428 3.348079 6.111355h-4.890281c-.323725-1.303557-.969539-2.340015-1.938533-3.111025-.968994-.77046-2.158537-1.155414-3.568628-1.155414-1.910146 0-3.443613.696112-4.604222 2.088887-1.160063 1.393325-1.739822 3.199691-1.739822 5.421852 0 2.2519.579759 4.081948 1.739822 5.489041 1.160609 1.407644 2.694076 2.111466 4.604222 2.111466 1.468504 0 2.687525-.392664 3.656519-1.177993.96954-.785329 1.600615-1.844366 1.894861-3.177663h4.846062c-.440551 2.636854-1.571681 4.703712-3.392298 6.199471ZM80.76353 17.244741c-.205809-1.659324-.859266-2.955722-1.96037-3.889195-1.101651-.932922-2.48936-1.399934-4.163672-1.399934-1.556941 0-2.900977.482432-4.031015 1.444542-1.13113.963212-1.784586 2.24419-1.96037 3.844587H80.76353Zm-15.882766-3.622095c.92532-1.76286 2.21804-3.126446 3.877067-4.089107 1.659573-.962661 3.56153-1.444542 5.705873-1.444542 2.173276 0 4.089428.444432 5.749 1.333296 1.659027.888865 2.96594 2.148915 3.921287 3.77795.953708 1.629584 1.445575 3.540588 1.4756 5.73356 0 .592577-.043673 1.200022-.13211 1.821787H68.471773v.2671c.117372 1.9848.734252 3.555457 1.850642 4.710871 1.115845 1.155964 2.599088 1.733671 4.449184 1.733671 1.46905 0 2.702265-.348607 3.701284-1.044718.997381-.696112 1.65848-1.681353 1.982207-2.955723h4.75817c-.412164 2.311378-1.51982 4.207512-3.326243 5.688402-1.806423 1.482542-4.06104 2.222161-6.762759 2.222161-2.350697 0-4.398414-.48078-6.145878-1.443991-1.747465-.962661-3.099143-2.317987-4.053397-4.066527-.9548-1.74799-1.431928-3.77795-1.431928-6.088777 0-2.340015.462388-4.392554 1.387709-6.155413Zm-13.788648-1.044719h-3.92074V8.355546h3.92074V2.00022h4.802389v6.355326h5.418723v4.222381h-5.418723v11.866946c0 .888864.175784 1.518339.528443 1.888974.35266.370085.954254.555678 1.806423.555678h3.6123v4.22128h-4.58184c-2.144343 0-3.70838-.502809-4.691568-1.51118-.984826-1.006718-1.476147-2.562506-1.476147-4.666262V12.577927Z" mask="url(#b)"/>
  </g>
</svg>
