<?xml version="1.0" encoding="UTF-8"?>
<svg id="Laag_2" data-name="Laag 2" xmlns="http://www.w3.org/2000/svg" viewBox="0 0 497.96 123.99">
  <defs>
    <style>
      .cls-1 {
        fill: #fff;
      }
    </style>
  </defs>
  <g id="DESIGN">
    <g>
      <g>
        <path class="cls-1" d="M497.61,92.31c-.23-.55-.55-1.03-.96-1.44-.41-.41-.89-.73-1.44-.96-.55-.23-1.14-.35-1.78-.35s-1.23,.12-1.77,.35c-.54,.23-1.02,.56-1.44,.97-.41,.41-.73,.89-.96,1.44s-.34,1.15-.34,1.79,.11,1.24,.34,1.79c.23,.56,.55,1.04,.96,1.45s.89,.74,1.44,.97,1.14,.35,1.78,.35,1.23-.12,1.78-.35c.55-.23,1.03-.56,1.44-.97,.41-.41,.73-.9,.96-1.45,.23-.56,.35-1.15,.35-1.79s-.12-1.25-.35-1.8Zm-.6,3.37c-.2,.48-.47,.9-.82,1.26-.35,.36-.76,.63-1.23,.83-.47,.2-.98,.3-1.54,.3s-1.07-.1-1.53-.3c-.47-.2-.88-.48-1.23-.83-.35-.36-.62-.78-.82-1.26-.19-.48-.29-1.01-.29-1.57s.1-1.09,.29-1.56c.19-.48,.46-.9,.82-1.25,.35-.36,.76-.63,1.23-.83,.47-.2,.98-.3,1.53-.3s1.07,.1,1.54,.29,.88,.47,1.23,.83c.35,.36,.62,.78,.82,1.26,.2,.48,.29,1,.29,1.56s-.1,1.09-.29,1.57Z"/>
        <path class="cls-1" d="M493.48,95.92c-.47,0-.84-.17-1.13-.5-.29-.33-.44-.77-.44-1.31s.15-.97,.45-1.31c.3-.34,.69-.51,1.18-.51,.69,0,1.13,.31,1.3,.93h.75c-.1-.48-.33-.87-.71-1.16-.37-.29-.82-.44-1.36-.44-.46,0-.87,.11-1.22,.32s-.63,.5-.83,.88c-.2,.37-.29,.8-.29,1.29s.1,.91,.29,1.28c.2,.37,.47,.66,.82,.87,.35,.21,.74,.31,1.18,.31,.36,0,.69-.07,.98-.2,.29-.13,.54-.32,.74-.56,.2-.24,.34-.52,.41-.83h-.74c-.2,.61-.67,.92-1.39,.92Z"/>
      </g>
      <path class="cls-1" d="M30.45,24.47c-11.98,0-18.73,12.74-21.02,26.38V25.49H0V123.99H9.43v-47.91c2.29,12.11,9.3,22.94,20.01,22.94,12.62,0,22.55-13.63,22.55-37.72S42.82,24.47,30.45,24.47Zm-4.33,69.07c-9.56,0-16.31-11.21-16.31-29.18v-.25c0-18.6,5.86-33.77,16.69-33.77,10.19,0,15.8,13.63,15.8,31.73s-5.61,31.47-16.18,31.47Z"/>
      <path class="cls-1" d="M81.49,24.21c-15.42,0-22.3,13.38-23.7,26.5h1.53c1.78-11.21,8.03-20.39,18.22-20.39,8.54,0,12.61,6.88,13.38,16.69-2.55,1.78-6.12,4.46-11.47,8.41-14.02,10.19-23.45,18.86-23.45,30.33,0,8.16,4.84,13.12,12.36,13.12,14.78,0,21.15-20.39,23.32-37.97h.51l3.31,37.59h9.17l-5.1-52.5c-1.66-15.29-8.03-21.79-18.09-21.79Zm-9.3,66.52c-5.1,0-8.66-3.44-8.66-10.19,0-9.05,6.5-16.18,21.66-27.14l5.86-4.33,.38,3.82c-.76,16.95-6.88,37.85-19.24,37.85Z"/>
      <path class="cls-1" d="M148.19,24.59c-10.7,0-20.77,8.28-24.85,28.03V25.49h-9.43V98.5h9.43v-33.77c0-17.84,6.12-31.47,20.13-31.47,1.53,0,2.93,.25,4.71,.64v-9.3Z"/>
      <path class="cls-1" d="M152.38,41.03c0,19.88,28.16,26.63,28.16,44.34,0,6.5-3.82,11.34-11.09,11.34-9.3,0-16.69-8.54-21.15-25.23h-1.53l3.19,22.17c4.46,3.06,11.47,5.35,18.35,5.35,13.76,0,19.37-9.3,19.37-17.97,0-19.75-28.54-27.14-28.54-43.96,0-5.99,3.44-10.45,10.7-10.45,8.79,0,15.04,6.75,17.46,19.75h1.53V29.31c-4.59-2.8-10.96-4.84-17.84-4.84-12.11,0-18.6,7.14-18.6,16.57Z"/>
      <rect class="cls-1" x="197.66" y="25.49" width="9.43" height="73.02"/>
      <path class="cls-1" d="M202.38,.51c-3.7,0-6.37,2.8-6.37,6.5s2.68,6.63,6.37,6.63,6.37-2.8,6.37-6.63-2.55-6.5-6.37-6.5Z"/>
      <path class="cls-1" d="M258.34,0V46.89c-2.29-11.85-9.17-22.43-20-22.43-12.49,0-22.43,13.63-22.43,37.46s9.05,37.08,21.53,37.08c11.72,0,18.6-12.49,20.9-26.25v25.74h9.3V0h-9.3Zm-.38,59.25c0,18.73-5.73,33.9-16.56,33.9-10.19,0-15.93-13.63-15.93-31.86s5.61-31.35,16.06-31.35c9.81,0,16.44,11.34,16.44,29.05v.26Z"/>
      <path class="cls-1" d="M301.4,24.21c-15.42,0-22.3,13.38-23.7,26.5h1.53c1.78-11.21,8.03-20.39,18.22-20.39,8.54,0,12.61,6.88,13.38,16.69-2.55,1.78-6.12,4.46-11.47,8.41-14.02,10.19-23.45,18.86-23.45,30.33,0,8.16,4.84,13.12,12.36,13.12,14.78,0,21.15-20.39,23.32-37.97h.51l3.31,37.59h9.17l-5.1-52.5c-1.66-15.29-8.03-21.79-18.09-21.79Zm-9.3,66.52c-5.1,0-8.66-3.44-8.66-10.19,0-9.05,6.5-16.18,21.66-27.14l5.86-4.33,.38,3.82c-.76,16.95-6.88,37.85-19.24,37.85Z"/>
      <path class="cls-1" d="M366.06,24.21c-12.49,0-20.01,9.94-22.81,26.63V25.49h-9.43V98.5h9.43V63.71c0-17.84,5.86-32.88,18.48-32.88,7.9,0,11.85,5.86,11.85,18.6v49.06h9.43V47.66c0-15.55-5.86-23.45-16.95-23.45Z"/>
      <path class="cls-1" d="M418.07,92c-10.83,0-17.59-12.36-17.59-33.13s6.5-32.37,17.97-32.37c8.79,0,15.29,6.5,17.71,20.64h1.4V29.31c-3.82-2.68-11.47-5.1-18.22-5.1-16.69,0-27.78,16.31-27.78,39.63,0,21.03,9.17,35.17,23.96,35.17s21.02-15.67,23.57-33.51h-1.53c-2.68,15.93-9.3,26.5-19.5,26.5Z"/>
      <path class="cls-1" d="M489.45,65.5c-2.68,15.93-9.3,26.5-19.62,26.5-11.47,0-17.84-12.62-17.84-33.64,0-2.93,.13-5.61,.38-8.16h37.72c-1.66-16.69-9.05-26-21.53-26-14.53,0-25.36,16.18-25.36,39.5,0,21.15,9.17,35.3,23.96,35.3s21.28-15.93,23.83-33.51h-1.53Zm-21.66-38.86c7.9,0,12.49,8.67,13.38,21.28h-28.54c1.66-13.63,7.14-21.28,15.16-21.28Z"/>
    </g>
  </g>
</svg>